<svg width="80" height="33" viewBox="0 0 80 33" fill="none" xmlns="http://www.w3.org/2000/svg">
<path d="M12.2101 20.5228C12.0155 19.9388 11.75 19.3725 11.4138 18.824C11.0953 18.2577 10.7148 17.7534 10.2724 17.311C9.83005 16.8686 9.33456 16.5058 8.78599 16.2227C8.23742 15.9218 7.63576 15.736 6.98101 15.6653C6.73327 15.6476 6.47668 15.6564 6.21124 15.6918C5.94581 15.7095 5.68922 15.7626 5.44148 15.8511C5.19373 15.9395 4.96369 16.0634 4.75134 16.2227C4.55668 16.3819 4.41512 16.5943 4.32664 16.8597L3.02599 20.7351C2.67207 21.7438 2.49512 22.5047 2.49512 23.0179C2.51281 23.5134 2.69862 23.7611 3.05253 23.7611V24H0.796313V23.7611C0.902489 23.7611 1.02636 23.7169 1.16793 23.6284C1.30949 23.5222 1.45991 23.3541 1.61917 23.1241C1.79613 22.8763 1.98194 22.5578 2.17659 22.1685C2.37124 21.7615 2.57475 21.2571 2.7871 20.6555L7.51189 6.82617L7.00756 5.36627H9.02489L14.0947 20.1512C14.2717 20.6466 14.4398 21.1156 14.5991 21.558C14.776 22.0004 14.9353 22.3897 15.0769 22.7259C15.2361 23.0444 15.3777 23.301 15.5016 23.4957C15.6254 23.6726 15.7405 23.7611 15.8466 23.7611V24H12.741V23.7611C12.8295 23.7611 12.856 23.5134 12.8206 23.0179C12.803 22.5224 12.6702 21.903 12.4225 21.1598L12.2101 20.5228ZM4.61862 16.0634C4.91945 15.7803 5.29106 15.6033 5.73346 15.5325C6.17585 15.4441 6.59171 15.4175 6.98101 15.4529C7.98968 15.5414 8.87447 15.8776 9.63539 16.4616C10.3963 17.0455 11.0334 17.7445 11.5465 18.5585L7.64461 7.19779L4.61862 16.0634ZM7.32608 0.641473C7.52074 0.818431 7.82157 1.11041 8.22857 1.51742C8.63558 1.90673 9.06028 2.31373 9.50267 2.73843C9.99816 3.23391 10.5467 3.76479 11.1484 4.33106L11.0422 4.49032C10.3344 4.08332 9.67963 3.70286 9.07797 3.34894C8.81254 3.18968 8.5471 3.03926 8.28166 2.89769C8.03392 2.73843 7.78618 2.58802 7.53843 2.44645C7.30839 2.30488 7.09604 2.18101 6.90138 2.07484C6.72442 1.96866 6.58286 1.88018 6.47668 1.8094C6.05198 1.54396 5.79539 1.29622 5.70691 1.06617C5.61843 0.818432 5.65383 0.597234 5.81309 0.402579C5.97235 0.190229 6.16701 0.092902 6.39705 0.110598C6.64479 0.128293 6.95447 0.305252 7.32608 0.641473ZM17.3053 12.1615L19.8004 11.2059V21.7172C19.8004 22.1596 19.8181 22.5135 19.8535 22.779C19.9066 23.0444 19.9685 23.2568 20.0393 23.416C20.1101 23.5576 20.1809 23.6549 20.2517 23.708C20.3224 23.7434 20.3755 23.7611 20.4109 23.7611V24H17.3318V23.7611C17.3849 23.7611 17.4469 23.7434 17.5176 23.708C17.5884 23.6549 17.6504 23.5576 17.7035 23.416C17.7742 23.2568 17.8362 23.0444 17.8893 22.779C17.9423 22.5135 17.9689 22.1596 17.9689 21.7172V13.5152C17.8981 13.0374 17.8008 12.7277 17.6769 12.5862C17.553 12.4446 17.4557 12.3738 17.3849 12.3738L17.3053 12.1615ZM18.6856 9.05585C18.3317 9.05585 18.0308 8.94083 17.7831 8.71078C17.553 8.46304 17.438 8.16221 17.438 7.80829C17.438 7.45438 17.553 7.16239 17.7831 6.93235C18.0308 6.68461 18.3317 6.56074 18.6856 6.56074C19.0395 6.56074 19.3315 6.68461 19.5615 6.93235C19.8093 7.16239 19.9331 7.45438 19.9331 7.80829C19.9331 8.16221 19.8093 8.46304 19.5615 8.71078C19.3315 8.94083 19.0395 9.05585 18.6856 9.05585ZM31.2937 13.7541C31.4352 14.4265 31.6122 14.7362 31.8245 14.6831L31.9042 14.8955L30.4708 15.4529L30.3912 15.4794L29.0109 16.0103V15.7714C29.2056 15.6476 29.3383 15.4529 29.4091 15.1875C29.4798 14.9043 29.5152 14.6389 29.5152 14.3912C29.4798 14.0903 29.4268 13.7983 29.356 13.5152C29.3029 13.2144 29.2144 12.9401 29.0905 12.6923C28.9667 12.4446 28.7985 12.2411 28.5862 12.0818C28.3915 11.9049 28.1526 11.7987 27.8695 11.7633C27.1263 11.6571 26.5246 11.6925 26.0645 11.8695C25.6044 12.0465 25.2417 12.3119 24.9762 12.6658C24.7108 13.0197 24.5162 13.4356 24.3923 13.9134C24.2861 14.3735 24.2242 14.8512 24.2065 15.3467V21.7172C24.2065 22.1596 24.2242 22.5135 24.2596 22.779C24.3126 23.0444 24.3746 23.2568 24.4454 23.416C24.5162 23.5576 24.5869 23.6549 24.6577 23.708C24.7285 23.7434 24.7816 23.7611 24.817 23.7611V24H21.7379V23.7611C21.791 23.7611 21.8529 23.7434 21.9237 23.708C21.9945 23.6549 22.0564 23.5576 22.1095 23.416C22.1803 23.2568 22.2422 23.0444 22.2953 22.779C22.3484 22.5135 22.375 22.1596 22.375 21.7172V13.4887C22.375 13.0463 22.3484 12.6923 22.2953 12.4269C22.2422 12.1615 22.1803 11.958 22.1095 11.8164C22.0564 11.6748 21.9945 11.5775 21.9237 11.5244C21.8529 11.4713 21.791 11.4448 21.7379 11.4448V11.2059H24.2065V13.7276C24.295 13.3559 24.4277 13.0109 24.6046 12.6923C24.7816 12.3561 25.0116 12.073 25.2948 11.8429C25.5956 11.6129 25.9584 11.4359 26.3831 11.3121C26.8078 11.1705 27.3209 11.0997 27.9226 11.0997C28.9313 11.0997 29.701 11.3475 30.2319 11.8429C30.7805 12.3384 31.1344 12.9755 31.2937 13.7541ZM32.6509 11.2059H35.0929V18.0807C35.1991 17.2667 35.3407 16.5323 35.5177 15.8776C35.7123 15.2229 35.9247 14.6389 36.1547 14.1257C36.3317 13.7541 36.5352 13.3913 36.7652 13.0374C36.9953 12.6835 37.2607 12.365 37.5615 12.0818C37.88 11.781 38.2163 11.5421 38.5702 11.3652C38.9418 11.1882 39.3488 11.0997 39.7912 11.0997C40.5167 11.0997 41.1007 11.2501 41.5431 11.551C42.0032 11.8518 42.3571 12.2411 42.6048 12.7189C42.8703 13.1967 43.0472 13.7364 43.1357 14.3381C43.2419 14.9397 43.295 15.5414 43.295 16.143V21.7172C43.295 22.1596 43.3127 22.5135 43.3481 22.779C43.4012 23.0444 43.4631 23.2568 43.5339 23.416C43.6047 23.5576 43.6754 23.6549 43.7462 23.708C43.817 23.7434 43.8701 23.7611 43.9055 23.7611V24H40.8264V23.7611C40.8618 23.7611 40.9149 23.7434 40.9857 23.708C41.0565 23.6549 41.1184 23.5576 41.1715 23.416C41.2423 23.2568 41.3042 23.0444 41.3573 22.779C41.4104 22.5135 41.4369 22.1596 41.4369 21.7172V16.143C41.4369 15.8245 41.4192 15.4441 41.3838 15.0017C41.3484 14.5416 41.2688 14.0992 41.1449 13.6745C41.0388 13.2321 40.8706 12.8339 40.6406 12.48C40.4282 12.1261 40.1363 11.8872 39.7647 11.7633C39.393 11.6394 39.0303 11.6483 38.6764 11.7899C38.3224 11.9137 37.9951 12.1084 37.6942 12.3738C37.4111 12.6393 37.1545 12.9401 36.9245 13.2763C36.6944 13.6125 36.5086 13.9311 36.3671 14.2319C35.9777 15.0813 35.6681 16.1253 35.438 17.3641C35.208 18.5851 35.0929 20.0361 35.0929 21.7172C35.0929 22.1596 35.1106 22.5135 35.146 22.779C35.1991 23.0444 35.2611 23.2568 35.3318 23.416C35.4026 23.5576 35.4734 23.6549 35.5442 23.708C35.615 23.7434 35.6681 23.7611 35.7035 23.7611V24H32.6509V23.7611C32.6863 23.7611 32.7394 23.7434 32.8102 23.708C32.881 23.6549 32.9429 23.5576 32.996 23.416C33.0668 23.2568 33.1287 23.0444 33.1818 22.779C33.2349 22.5135 33.2614 22.1596 33.2614 21.7172V13.4887C33.2614 13.064 33.2349 12.7189 33.1818 12.4535C33.1287 12.1703 33.0668 11.958 32.996 11.8164C32.9429 11.6748 32.881 11.5775 32.8102 11.5244C32.7394 11.4713 32.6863 11.4448 32.6509 11.4448V11.2059ZM45.4618 19.3018C45.2318 18.4347 45.1787 17.5764 45.3026 16.727C45.4264 15.8776 45.6919 15.099 46.0989 14.3912C46.5236 13.6656 47.0721 13.0374 47.7446 12.5065C48.417 11.9757 49.1868 11.5952 50.0539 11.3652C50.9741 11.1174 51.8589 11.0643 52.7083 11.2059C53.5577 11.3298 54.3274 11.5864 55.0176 11.9757C55.7077 12.365 56.3005 12.8605 56.796 13.4621C57.2915 14.0638 57.6454 14.7185 57.8578 15.4264C57.2207 15.4264 56.5306 15.4529 55.7874 15.506C55.0618 15.5591 54.3982 15.6564 53.7966 15.798C54.2921 15.7803 54.7433 15.8688 55.1503 16.0634C55.575 16.2404 55.9378 16.4881 56.2386 16.8066C56.5394 17.1252 56.7783 17.4968 56.9553 17.9215C57.1322 18.3462 57.2384 18.7886 57.2738 19.2487C57.3446 20.2042 57.1411 21.0359 56.6633 21.7438C56.2032 22.4339 55.5839 22.9825 54.8052 23.3895C54.0443 23.7788 53.1861 24 52.2305 24.0531C51.2749 24.1239 50.3459 24 49.4434 23.6815C48.5586 23.3629 47.7534 22.8498 47.0279 22.1419C46.3024 21.4164 45.7803 20.4697 45.4618 19.3018ZM47.0279 17.3906C47.081 17.9038 47.1606 18.3816 47.2668 18.824C47.603 20.0981 48.1162 21.0979 48.8063 21.8234C49.4965 22.5489 50.2397 23.0444 51.036 23.3099C51.85 23.5753 52.664 23.6372 53.478 23.4957C54.2921 23.3364 54.9999 23.0267 55.6015 22.5666C56.2032 22.1065 56.6368 21.5226 56.9022 20.8147C57.1853 20.0892 57.1942 19.2841 56.9287 18.3993C56.7872 17.9215 56.5571 17.4879 56.2386 17.0986C55.9201 16.7093 55.5308 16.4262 55.0707 16.2492C54.6106 16.0546 54.0886 15.9838 53.5046 16.0369C52.9206 16.0723 52.3013 16.2846 51.6465 16.6739C51.0095 17.0455 50.3813 17.311 49.7619 17.4702C49.1603 17.6118 48.6028 17.6649 48.0897 17.6295C47.895 17.6118 47.7092 17.5941 47.5322 17.5764C47.3553 17.541 47.1872 17.4791 47.0279 17.3906ZM55.8139 15.2936C55.5662 14.7274 55.2476 14.1876 54.8583 13.6745C54.469 13.1436 54.0266 12.6923 53.5311 12.3207C53.0533 11.9491 52.5225 11.6837 51.9385 11.5244C51.3545 11.3652 50.744 11.374 50.107 11.551C49.5053 11.7102 49.001 11.9845 48.594 12.3738C48.187 12.7631 47.8596 13.2144 47.6119 13.7276C47.3818 14.2407 47.2137 14.7982 47.1075 15.3998C47.0191 16.0015 46.9925 16.5943 47.0279 17.1782C47.3287 17.3198 47.6827 17.4083 48.0897 17.4437C48.5851 17.4791 49.1249 17.426 49.7088 17.2844C50.3105 17.1252 50.921 16.8686 51.5403 16.5147C52.2836 16.09 53.0268 15.7891 53.77 15.6122C54.5133 15.4352 55.1945 15.329 55.8139 15.2936ZM58.8059 12.1615L61.301 11.2059V21.7172C61.301 22.1596 61.3187 22.5135 61.3541 22.779C61.4072 23.0444 61.4691 23.2568 61.5399 23.416C61.6107 23.5576 61.6815 23.6549 61.7522 23.708C61.823 23.7434 61.8761 23.7611 61.9115 23.7611V24H58.8324V23.7611C58.8855 23.7611 58.9474 23.7434 59.0182 23.708C59.089 23.6549 59.1509 23.5576 59.204 23.416C59.2748 23.2568 59.3368 23.0444 59.3898 22.779C59.4429 22.5135 59.4695 22.1596 59.4695 21.7172V13.5152C59.3987 13.0374 59.3014 12.7277 59.1775 12.5862C59.0536 12.4446 58.9563 12.3738 58.8855 12.3738L58.8059 12.1615ZM60.1862 9.05585C59.8322 9.05585 59.5314 8.94083 59.2837 8.71078C59.0536 8.46304 58.9386 8.16221 58.9386 7.80829C58.9386 7.45438 59.0536 7.16239 59.2837 6.93235C59.5314 6.68461 59.8322 6.56074 60.1862 6.56074C60.5401 6.56074 60.8321 6.68461 61.0621 6.93235C61.3098 7.16239 61.4337 7.45438 61.4337 7.80829C61.4337 8.16221 61.3098 8.46304 61.0621 8.71078C60.8321 8.94083 60.5401 9.05585 60.1862 9.05585ZM72.4226 15.9838C72.4226 15.6122 72.3165 15.214 72.1041 14.7893C71.9094 14.3469 71.6352 13.9222 71.2812 13.5152C70.9273 13.0905 70.5203 12.7189 70.0602 12.4004C69.6178 12.0641 69.1489 11.8253 68.6534 11.6837C68.1756 11.5244 67.689 11.489 67.1935 11.5775C66.7157 11.6483 66.2822 11.8872 65.8929 12.2942C65.5212 12.6658 65.3443 13.1082 65.362 13.6214C65.3797 14.1169 65.592 14.5681 65.999 14.9751C66.2999 15.2759 66.7423 15.5768 67.3262 15.8776C67.9279 16.1784 68.7153 16.4527 69.6886 16.7005C70.4141 16.8951 71.0247 17.1252 71.5201 17.3906C72.0156 17.656 72.4226 17.9392 72.7412 18.24C73.2543 18.7532 73.5552 19.3283 73.6436 19.9653C73.7321 20.6024 73.5994 21.2394 73.2455 21.8765C73.0685 22.1773 72.8562 22.4605 72.6084 22.7259C72.3784 22.9736 72.1218 23.1771 71.8387 23.3364C71.5555 23.5311 71.237 23.6992 70.8831 23.8407C70.5469 23.9646 70.193 24.0619 69.8213 24.1327C69.4497 24.2212 69.0781 24.2743 68.7065 24.292C68.3349 24.3274 67.981 24.3362 67.6447 24.3185C67.0077 24.2654 66.3353 24.1327 65.6274 23.9204C64.9373 23.6903 64.2118 23.3453 63.4508 22.8852L63.2385 22.7524L63.8755 19.8061L64.0879 19.8592C64.0525 20.0184 64.0879 20.2219 64.1941 20.4697C64.3002 20.7174 64.433 20.974 64.5922 21.2394C64.7515 21.5049 64.9196 21.7526 65.0965 21.9827C65.2735 22.195 65.4239 22.3543 65.5478 22.4605C65.9017 22.8144 66.291 23.0975 66.7157 23.3099C67.1404 23.5045 67.5828 23.6461 68.0429 23.7346C68.4853 23.823 68.9188 23.8584 69.3436 23.8407C69.7859 23.823 70.2018 23.7611 70.5911 23.6549C70.8035 23.6018 70.9981 23.5399 71.1751 23.4691C71.352 23.3806 71.5378 23.2833 71.7325 23.1771C71.9094 23.0533 72.0687 22.9206 72.2103 22.779C72.3341 22.6374 72.4403 22.487 72.5288 22.3277C72.635 22.1685 72.7058 22.0004 72.7412 21.8234C72.7765 21.5403 72.7589 21.2837 72.6881 21.0536C72.5642 20.7174 72.3518 20.4343 72.051 20.2042C71.7679 19.9565 71.4317 19.753 71.0424 19.5937C70.653 19.4168 70.2283 19.2664 69.7683 19.1425C69.3259 19.0186 68.8835 18.8859 68.4411 18.7443C67.5917 18.4966 66.8396 18.1427 66.1848 17.6826C65.5478 17.2225 65.0788 16.7005 64.778 16.1165C64.4949 15.5148 64.4064 14.8778 64.5126 14.2053C64.6365 13.5329 65.0435 12.8516 65.7336 12.1615C66.1937 11.6837 66.7953 11.3917 67.5386 11.2855C68.2995 11.1617 69.0604 11.1617 69.8213 11.2855C70.6 11.3917 71.2989 11.6041 71.9183 11.9226C72.5553 12.2234 72.9889 12.5685 73.2189 12.9578L72.5553 15.9838H72.4226Z" fill="white"/>
<path d="M20.5581 32C20.3713 32.0025 20.2091 31.973 20.0714 31.9115C19.9338 31.8501 19.8023 31.7579 19.677 31.635C19.6647 31.6252 19.6536 31.6129 19.6438 31.5982C19.6364 31.5834 19.6327 31.5662 19.6327 31.5465C19.6327 31.517 19.6438 31.49 19.6659 31.4654C19.6905 31.4409 19.7175 31.4286 19.747 31.4286C19.7765 31.4286 19.8035 31.4409 19.8281 31.4654C19.924 31.5687 20.0321 31.6473 20.1525 31.7014C20.2754 31.7555 20.4069 31.7825 20.547 31.7825C20.665 31.7825 20.7694 31.7641 20.8604 31.7272C20.9538 31.6903 21.0275 31.6375 21.0816 31.5687C21.1356 31.4998 21.1627 31.42 21.1627 31.329C21.1627 31.216 21.132 31.125 21.0705 31.0562C21.0091 30.9849 20.928 30.9272 20.8272 30.8829C20.7264 30.8363 20.6146 30.7945 20.4917 30.7576C20.3909 30.7281 20.2951 30.6949 20.2041 30.6581C20.1132 30.6187 20.0321 30.572 19.9608 30.518C19.8896 30.4614 19.8343 30.3926 19.7949 30.3115C19.7556 30.2304 19.7359 30.1321 19.7359 30.0166C19.7359 29.8863 19.7704 29.7708 19.8392 29.67C19.908 29.5693 20.0051 29.4906 20.1304 29.4341C20.2582 29.3751 20.4057 29.3456 20.5728 29.3456C20.7178 29.3456 20.8567 29.3702 20.9894 29.4194C21.1246 29.4685 21.2315 29.541 21.3101 29.6369C21.347 29.6762 21.3654 29.7118 21.3654 29.7438C21.3654 29.7684 21.3531 29.7929 21.3286 29.8175C21.304 29.8421 21.277 29.8544 21.2475 29.8544C21.2229 29.8544 21.202 29.8458 21.1848 29.8286C21.143 29.777 21.0902 29.7315 21.0263 29.6922C20.9624 29.6504 20.8911 29.6184 20.8124 29.5963C20.7363 29.5742 20.6564 29.5631 20.5728 29.5631C20.4573 29.5631 20.3528 29.5816 20.2594 29.6184C20.1685 29.6528 20.096 29.7032 20.0419 29.7696C19.9903 29.8359 19.9645 29.9158 19.9645 30.0092C19.9645 30.1124 19.994 30.1972 20.053 30.2636C20.112 30.33 20.1894 30.3853 20.2853 30.4295C20.3811 30.4713 20.4831 30.5106 20.5912 30.5475C20.6969 30.577 20.7977 30.6114 20.8935 30.6507C20.9919 30.6876 21.0779 30.7343 21.1516 30.7908C21.2278 30.8473 21.2868 30.9186 21.3286 31.0046C21.3728 31.0906 21.3949 31.1988 21.3949 31.329C21.3949 31.4544 21.3593 31.5674 21.288 31.6682C21.2167 31.769 21.1184 31.8488 20.9931 31.9078C20.8702 31.9668 20.7252 31.9975 20.5581 32ZM23.8005 29.5742C23.83 29.5939 23.8472 29.6197 23.8522 29.6516C23.8571 29.6811 23.8497 29.7106 23.83 29.7401C23.8128 29.7622 23.7907 29.7745 23.7637 29.777C23.7366 29.7794 23.7108 29.7745 23.6863 29.7622C23.5929 29.7008 23.4921 29.6528 23.384 29.6184C23.2783 29.584 23.164 29.5668 23.0411 29.5668C22.8912 29.5668 22.7511 29.5939 22.6208 29.6479C22.493 29.6995 22.3812 29.7757 22.2853 29.8765C22.1895 29.9748 22.1145 30.0916 22.0605 30.2267C22.0088 30.3619 21.983 30.5106 21.983 30.6728C21.983 30.8399 22.0101 30.9923 22.0641 31.13C22.1182 31.2651 22.1932 31.3819 22.289 31.4802C22.3873 31.5785 22.5004 31.6535 22.6282 31.7051C22.756 31.7567 22.8936 31.7825 23.0411 31.7825C23.1615 31.7825 23.2746 31.7653 23.3803 31.7309C23.4884 31.6965 23.5892 31.6498 23.6826 31.5908C23.7072 31.576 23.733 31.5711 23.76 31.576C23.7895 31.5785 23.8128 31.592 23.83 31.6166C23.8522 31.6436 23.8595 31.6731 23.8522 31.7051C23.8472 31.7346 23.8313 31.7579 23.8042 31.7751C23.7428 31.8144 23.6703 31.8513 23.5867 31.8857C23.5032 31.9201 23.4147 31.9472 23.3213 31.9668C23.2279 31.9889 23.1345 32 23.0411 32C22.8641 32 22.6982 31.968 22.5434 31.9041C22.3886 31.8402 22.2509 31.7505 22.1305 31.635C22.0101 31.517 21.9154 31.377 21.8466 31.2147C21.7803 31.0525 21.7471 30.8719 21.7471 30.6728C21.7471 30.4811 21.7803 30.3054 21.8466 30.1456C21.913 29.9834 22.0052 29.8433 22.1231 29.7253C22.2411 29.6074 22.3787 29.5152 22.536 29.4488C22.6933 29.3825 22.8617 29.3493 23.0411 29.3493C23.1812 29.3493 23.3164 29.369 23.4466 29.4083C23.5769 29.4476 23.6949 29.5029 23.8005 29.5742ZM26.6257 30.6728C26.6257 30.867 26.595 31.0452 26.5335 31.2074C26.4745 31.3671 26.3897 31.5072 26.2791 31.6276C26.1685 31.7456 26.0371 31.8378 25.8847 31.9041C25.7348 31.968 25.5701 32 25.3907 32C25.2113 32 25.0454 31.968 24.893 31.9041C24.743 31.8378 24.6128 31.7456 24.5022 31.6276C24.3916 31.5072 24.3056 31.3671 24.2441 31.2074C24.1851 31.0452 24.1556 30.867 24.1556 30.6728C24.1556 30.4786 24.1851 30.3017 24.2441 30.1419C24.3056 29.9797 24.3916 29.8396 24.5022 29.7217C24.6128 29.6012 24.743 29.5091 24.893 29.4452C25.0454 29.3788 25.2113 29.3456 25.3907 29.3456C25.5701 29.3456 25.7348 29.3788 25.8847 29.4452C26.0371 29.5091 26.1685 29.6012 26.2791 29.7217C26.3897 29.8396 26.4745 29.9797 26.5335 30.1419C26.595 30.3017 26.6257 30.4786 26.6257 30.6728ZM26.3897 30.6728C26.3897 30.4541 26.3467 30.2624 26.2607 30.0977C26.1772 29.9306 26.0604 29.8003 25.9105 29.7069C25.7606 29.6135 25.5873 29.5668 25.3907 29.5668C25.1965 29.5668 25.0232 29.6135 24.8709 29.7069C24.7209 29.8003 24.603 29.9306 24.5169 30.0977C24.4334 30.2624 24.3916 30.4541 24.3916 30.6728C24.3916 30.8916 24.4334 31.0845 24.5169 31.2516C24.603 31.4163 24.7209 31.5453 24.8709 31.6387C25.0232 31.7321 25.1965 31.7788 25.3907 31.7788C25.5873 31.7788 25.7606 31.7321 25.9105 31.6387C26.0604 31.5453 26.1772 31.4163 26.2607 31.2516C26.3467 31.0845 26.3897 30.8916 26.3897 30.6728ZM27.8426 31.9631C27.8082 31.9631 27.78 31.9521 27.7578 31.93C27.7382 31.9078 27.7283 31.882 27.7283 31.8525V29.5041H27.9569V31.8525C27.9569 31.882 27.9459 31.9078 27.9237 31.93C27.9016 31.9521 27.8746 31.9631 27.8426 31.9631ZM26.9652 29.5926C26.9357 29.5926 26.9099 29.5828 26.8878 29.5631C26.8657 29.5435 26.8546 29.5177 26.8546 29.4857C26.8546 29.4562 26.8657 29.4316 26.8878 29.412C26.9099 29.3923 26.9357 29.3825 26.9652 29.3825H28.72C28.7495 29.3825 28.7753 29.3923 28.7975 29.412C28.8196 29.4316 28.8306 29.4574 28.8306 29.4894C28.8306 29.5214 28.8196 29.5472 28.7975 29.5668C28.7753 29.584 28.7495 29.5926 28.72 29.5926H26.9652ZM30.1792 31.9631C30.1448 31.9631 30.1165 31.9521 30.0944 31.93C30.0747 31.9078 30.0649 31.882 30.0649 31.8525V29.5041H30.2935V31.8525C30.2935 31.882 30.2824 31.9078 30.2603 31.93C30.2382 31.9521 30.2111 31.9631 30.1792 31.9631ZM29.3018 29.5926C29.2723 29.5926 29.2465 29.5828 29.2243 29.5631C29.2022 29.5435 29.1912 29.5177 29.1912 29.4857C29.1912 29.4562 29.2022 29.4316 29.2243 29.412C29.2465 29.3923 29.2723 29.3825 29.3018 29.3825H31.0566C31.0861 29.3825 31.1119 29.3923 31.134 29.412C31.1561 29.4316 31.1672 29.4574 31.1672 29.4894C31.1672 29.5214 31.1561 29.5472 31.134 29.5668C31.1119 29.584 31.0861 29.5926 31.0566 29.5926H29.3018ZM31.8696 31.8488C31.8671 31.8808 31.8536 31.9078 31.829 31.93C31.8069 31.9521 31.7811 31.9631 31.7516 31.9631C31.7172 31.9631 31.6889 31.9521 31.6668 31.93C31.6471 31.9078 31.6373 31.8808 31.6373 31.8488V29.4968C31.6373 29.4648 31.6484 29.4378 31.6705 29.4157C31.6926 29.3935 31.7209 29.3825 31.7553 29.3825C31.7848 29.3825 31.8106 29.3935 31.8327 29.4157C31.8573 29.4378 31.8696 29.4648 31.8696 29.4968V31.8488ZM33.2705 32C33.0837 32.0025 32.9215 31.973 32.7838 31.9115C32.6462 31.8501 32.5147 31.7579 32.3894 31.635C32.3771 31.6252 32.366 31.6129 32.3562 31.5982C32.3488 31.5834 32.3451 31.5662 32.3451 31.5465C32.3451 31.517 32.3562 31.49 32.3783 31.4654C32.4029 31.4409 32.4299 31.4286 32.4594 31.4286C32.4889 31.4286 32.5159 31.4409 32.5405 31.4654C32.6364 31.5687 32.7445 31.6473 32.8649 31.7014C32.9878 31.7555 33.1193 31.7825 33.2594 31.7825C33.3774 31.7825 33.4818 31.7641 33.5728 31.7272C33.6662 31.6903 33.7399 31.6375 33.794 31.5687C33.8481 31.4998 33.8751 31.42 33.8751 31.329C33.8751 31.216 33.8444 31.125 33.7829 31.0562C33.7215 30.9849 33.6404 30.9272 33.5396 30.8829C33.4388 30.8363 33.327 30.7945 33.2041 30.7576C33.1034 30.7281 33.0075 30.6949 32.9166 30.6581C32.8256 30.6187 32.7445 30.572 32.6732 30.518C32.602 30.4614 32.5467 30.3926 32.5073 30.3115C32.468 30.2304 32.4484 30.1321 32.4484 30.0166C32.4484 29.8863 32.4828 29.7708 32.5516 29.67C32.6204 29.5693 32.7175 29.4906 32.8428 29.4341C32.9706 29.3751 33.1181 29.3456 33.2852 29.3456C33.4302 29.3456 33.5691 29.3702 33.7018 29.4194C33.837 29.4685 33.9439 29.541 34.0226 29.6369C34.0594 29.6762 34.0779 29.7118 34.0779 29.7438C34.0779 29.7684 34.0656 29.7929 34.041 29.8175C34.0164 29.8421 33.9894 29.8544 33.9599 29.8544C33.9353 29.8544 33.9144 29.8458 33.8972 29.8286C33.8554 29.777 33.8026 29.7315 33.7387 29.6922C33.6748 29.6504 33.6035 29.6184 33.5249 29.5963C33.4487 29.5742 33.3688 29.5631 33.2852 29.5631C33.1697 29.5631 33.0653 29.5816 32.9719 29.6184C32.8809 29.6528 32.8084 29.7032 32.7543 29.7696C32.7027 29.8359 32.6769 29.9158 32.6769 30.0092C32.6769 30.1124 32.7064 30.1972 32.7654 30.2636C32.8244 30.33 32.9018 30.3853 32.9977 30.4295C33.0935 30.4713 33.1955 30.5106 33.3037 30.5475C33.4093 30.577 33.5101 30.6114 33.606 30.6507C33.7043 30.6876 33.7903 30.7343 33.864 30.7908C33.9402 30.8473 33.9992 30.9186 34.041 31.0046C34.0852 31.0906 34.1073 31.1988 34.1073 31.329C34.1073 31.4544 34.0717 31.5674 34.0004 31.6682C33.9292 31.769 33.8308 31.8488 33.7055 31.9078C33.5826 31.9668 33.4376 31.9975 33.2705 32ZM34.7471 29.3825C34.7766 29.3825 34.8024 29.3935 34.8245 29.4157C34.8491 29.4378 34.8613 29.4648 34.8613 29.4968V31.8488C34.8589 31.8808 34.8454 31.9078 34.8208 31.93C34.7987 31.9521 34.7729 31.9631 34.7434 31.9631C34.709 31.9631 34.6807 31.9521 34.6586 31.93C34.6389 31.9078 34.6291 31.8808 34.6291 31.8488V29.4968C34.6291 29.4648 34.6401 29.4378 34.6623 29.4157C34.6844 29.3935 34.7127 29.3825 34.7471 29.3825ZM36.4761 29.3825C36.5105 29.3825 36.5375 29.3935 36.5572 29.4157C36.5793 29.4378 36.5904 29.4648 36.5904 29.4968V31.8488C36.5879 31.8808 36.5756 31.9078 36.5535 31.93C36.5339 31.9521 36.5068 31.9631 36.4724 31.9631C36.4405 31.9631 36.4134 31.9521 36.3913 31.93C36.3692 31.9078 36.3581 31.8808 36.3581 31.8488V29.4968C36.3581 29.4648 36.3692 29.4378 36.3913 29.4157C36.4159 29.3935 36.4441 29.3825 36.4761 29.3825ZM34.7286 30.5364H36.4798L36.4761 30.7502H34.7139L34.7286 30.5364ZM38.4048 31.9631C38.3704 31.9631 38.3421 31.9521 38.32 31.93C38.3004 31.9078 38.2905 31.882 38.2905 31.8525V29.4931C38.2905 29.4636 38.3016 29.4378 38.3237 29.4157C38.3458 29.3935 38.3716 29.3825 38.4011 29.3825H39.7431C39.775 29.3825 39.8008 29.3935 39.8205 29.4157C39.8426 29.4353 39.8537 29.4611 39.8537 29.4931C39.8537 29.5226 39.8426 29.5484 39.8205 29.5705C39.8008 29.5902 39.775 29.6 39.7431 29.6H38.5007L38.5154 29.5779V30.5585L38.497 30.5253H39.5772C39.6091 30.5253 39.6349 30.5364 39.6546 30.5585C39.6767 30.5782 39.6878 30.6028 39.6878 30.6323C39.6878 30.6642 39.6767 30.69 39.6546 30.7097C39.6349 30.7293 39.6091 30.7392 39.5772 30.7392H38.4896L38.5154 30.7097V31.8525C38.5154 31.882 38.5043 31.9078 38.4822 31.93C38.4626 31.9521 38.4368 31.9631 38.4048 31.9631ZM42.2035 29.3825C42.238 29.3825 42.265 29.3935 42.2846 29.4157C42.3043 29.4353 42.3141 29.4611 42.3141 29.4931V31.0194C42.3141 31.2012 42.2711 31.3659 42.1851 31.5134C42.0991 31.6608 41.9836 31.7788 41.8386 31.8673C41.6936 31.9533 41.5301 31.9963 41.3482 31.9963C41.1664 31.9963 41.0017 31.9533 40.8542 31.8673C40.7092 31.7788 40.5937 31.6608 40.5077 31.5134C40.4217 31.3659 40.3787 31.2012 40.3787 31.0194V29.4931C40.3787 29.4611 40.3885 29.4353 40.4082 29.4157C40.4303 29.3935 40.4598 29.3825 40.4966 29.3825C40.5261 29.3825 40.5519 29.3935 40.574 29.4157C40.5962 29.4353 40.6072 29.4611 40.6072 29.4931V31.0194C40.6072 31.1619 40.6404 31.2897 40.7068 31.4028C40.7756 31.5158 40.8665 31.6068 40.9796 31.6756C41.0926 31.7419 41.2155 31.7751 41.3482 31.7751C41.4859 31.7751 41.6112 31.7419 41.7243 31.6756C41.8373 31.6068 41.927 31.5158 41.9934 31.4028C42.0622 31.2897 42.0966 31.1619 42.0966 31.0194V29.4931C42.0966 29.4611 42.1065 29.4353 42.1261 29.4157C42.1458 29.3935 42.1716 29.3825 42.2035 29.3825ZM43.1322 31.9631C43.0953 31.9631 43.0646 31.9521 43.04 31.93C43.0179 31.9078 43.0068 31.882 43.0068 31.8525V29.4931C43.0068 29.4636 43.0179 29.4378 43.04 29.4157C43.0621 29.3935 43.0879 29.3825 43.1174 29.3825H44.1128C44.2529 29.3825 44.3783 29.4132 44.4889 29.4747C44.5995 29.5336 44.6855 29.616 44.7469 29.7217C44.8108 29.8273 44.8428 29.9465 44.8428 30.0793C44.8428 30.1874 44.8231 30.2869 44.7838 30.3779C44.7445 30.4688 44.6892 30.5462 44.6179 30.6101C44.5466 30.6716 44.4667 30.717 44.3783 30.7465L44.2492 30.706C44.3402 30.7134 44.425 30.7429 44.5036 30.7945C44.5822 30.8436 44.6449 30.9124 44.6916 31.0009C44.7408 31.0869 44.7666 31.1914 44.769 31.3143C44.7715 31.42 44.7764 31.5023 44.7838 31.5613C44.7936 31.6203 44.8071 31.6645 44.8243 31.694C44.8415 31.7235 44.8637 31.7469 44.8907 31.7641C44.9153 31.7788 44.9312 31.7997 44.9386 31.8267C44.9485 31.8538 44.946 31.8796 44.9313 31.9041C44.9214 31.9238 44.9067 31.9386 44.887 31.9484C44.8698 31.9558 44.8514 31.9594 44.8317 31.9594C44.812 31.9594 44.7924 31.9545 44.7727 31.9447C44.7383 31.925 44.7027 31.8943 44.6658 31.8525C44.6314 31.8108 44.6019 31.7493 44.5773 31.6682C44.5552 31.5871 44.5442 31.474 44.5442 31.329C44.5442 31.2332 44.5282 31.1545 44.4962 31.0931C44.4667 31.0316 44.4274 30.9849 44.3783 30.953C44.3316 30.9186 44.2787 30.8952 44.2197 30.8829C44.1632 30.8682 44.1091 30.8608 44.0575 30.8608H43.1985L43.2391 30.8092V31.8525C43.2391 31.882 43.2293 31.9078 43.2096 31.93C43.1899 31.9521 43.1641 31.9631 43.1322 31.9631ZM43.1985 30.6581H44.1239C44.2074 30.6507 44.2861 30.6237 44.3598 30.577C44.4336 30.5278 44.4925 30.4614 44.5368 30.3779C44.5835 30.2943 44.6068 30.1972 44.6068 30.0866C44.6068 29.9465 44.5589 29.831 44.463 29.7401C44.3697 29.6467 44.2468 29.6 44.0944 29.6H43.2133L43.2391 29.5484V30.7097L43.1985 30.6581ZM47.3641 29.3825C47.3961 29.3825 47.4207 29.3923 47.4379 29.412C47.4575 29.4316 47.4674 29.4562 47.4674 29.4857V31.8452C47.4674 31.882 47.4551 31.9115 47.4305 31.9336C47.4084 31.9533 47.3826 31.9631 47.3531 31.9631C47.3383 31.9631 47.3224 31.9607 47.3052 31.9558C47.288 31.9484 47.2744 31.9386 47.2646 31.9263L45.6204 29.7106L45.683 29.6774V31.8636C45.683 31.8906 45.6732 31.914 45.6535 31.9336C45.6339 31.9533 45.6093 31.9631 45.5798 31.9631C45.5479 31.9631 45.5221 31.9533 45.5024 31.9336C45.4852 31.914 45.4766 31.8906 45.4766 31.8636V29.4931C45.4766 29.4562 45.4876 29.4292 45.5098 29.412C45.5319 29.3923 45.5565 29.3825 45.5835 29.3825C45.5982 29.3825 45.6142 29.3862 45.6314 29.3935C45.6486 29.3985 45.6621 29.4083 45.672 29.423L47.2978 31.6129L47.2609 31.6793V29.4857C47.2609 29.4562 47.2707 29.4316 47.2904 29.412C47.3125 29.3923 47.3371 29.3825 47.3641 29.3825ZM48.391 31.8488C48.3886 31.8808 48.375 31.9078 48.3505 31.93C48.3283 31.9521 48.3025 31.9631 48.273 31.9631C48.2386 31.9631 48.2104 31.9521 48.1882 31.93C48.1686 31.9078 48.1588 31.8808 48.1588 31.8488V29.4968C48.1588 29.4648 48.1698 29.4378 48.1919 29.4157C48.2141 29.3935 48.2423 29.3825 48.2767 29.3825C48.3062 29.3825 48.332 29.3935 48.3541 29.4157C48.3787 29.4378 48.391 29.4648 48.391 29.4968V31.8488ZM49.8472 31.9631C49.8128 31.9631 49.7846 31.9521 49.7624 31.93C49.7428 31.9078 49.7329 31.882 49.7329 31.8525V29.5041H49.9615V31.8525C49.9615 31.882 49.9505 31.9078 49.9283 31.93C49.9062 31.9521 49.8792 31.9631 49.8472 31.9631ZM48.9698 29.5926C48.9403 29.5926 48.9145 29.5828 48.8924 29.5631C48.8703 29.5435 48.8592 29.5177 48.8592 29.4857C48.8592 29.4562 48.8703 29.4316 48.8924 29.412C48.9145 29.3923 48.9403 29.3825 48.9698 29.3825H50.7247C50.7541 29.3825 50.78 29.3923 50.8021 29.412C50.8242 29.4316 50.8353 29.4574 50.8353 29.4894C50.8353 29.5214 50.8242 29.5472 50.8021 29.5668C50.78 29.584 50.7541 29.5926 50.7247 29.5926H48.9698ZM53.1302 29.3825C53.1647 29.3825 53.1917 29.3935 53.2113 29.4157C53.231 29.4353 53.2408 29.4611 53.2408 29.4931V31.0194C53.2408 31.2012 53.1978 31.3659 53.1118 31.5134C53.0258 31.6608 52.9103 31.7788 52.7653 31.8673C52.6203 31.9533 52.4568 31.9963 52.2749 31.9963C52.0931 31.9963 51.9284 31.9533 51.7809 31.8673C51.6359 31.7788 51.5204 31.6608 51.4344 31.5134C51.3484 31.3659 51.3054 31.2012 51.3054 31.0194V29.4931C51.3054 29.4611 51.3152 29.4353 51.3348 29.4157C51.357 29.3935 51.3865 29.3825 51.4233 29.3825C51.4528 29.3825 51.4786 29.3935 51.5007 29.4157C51.5229 29.4353 51.5339 29.4611 51.5339 29.4931V31.0194C51.5339 31.1619 51.5671 31.2897 51.6335 31.4028C51.7023 31.5158 51.7932 31.6068 51.9063 31.6756C52.0193 31.7419 52.1422 31.7751 52.2749 31.7751C52.4126 31.7751 52.5379 31.7419 52.651 31.6756C52.764 31.6068 52.8537 31.5158 52.9201 31.4028C52.9889 31.2897 53.0233 31.1619 53.0233 31.0194V29.4931C53.0233 29.4611 53.0332 29.4353 53.0528 29.4157C53.0725 29.3935 53.0983 29.3825 53.1302 29.3825ZM54.0589 31.9631C54.022 31.9631 53.9913 31.9521 53.9667 31.93C53.9446 31.9078 53.9335 31.882 53.9335 31.8525V29.4931C53.9335 29.4636 53.9446 29.4378 53.9667 29.4157C53.9888 29.3935 54.0146 29.3825 54.0441 29.3825H55.0395C55.1796 29.3825 55.305 29.4132 55.4156 29.4747C55.5262 29.5336 55.6122 29.616 55.6736 29.7217C55.7375 29.8273 55.7695 29.9465 55.7695 30.0793C55.7695 30.1874 55.7498 30.2869 55.7105 30.3779C55.6712 30.4688 55.6159 30.5462 55.5446 30.6101C55.4733 30.6716 55.3934 30.717 55.305 30.7465L55.1759 30.706C55.2669 30.7134 55.3517 30.7429 55.4303 30.7945C55.5089 30.8436 55.5716 30.9124 55.6183 31.0009C55.6675 31.0869 55.6933 31.1914 55.6957 31.3143C55.6982 31.42 55.7031 31.5023 55.7105 31.5613C55.7203 31.6203 55.7338 31.6645 55.751 31.694C55.7682 31.7235 55.7904 31.7469 55.8174 31.7641C55.842 31.7788 55.858 31.7997 55.8653 31.8267C55.8752 31.8538 55.8727 31.8796 55.858 31.9041C55.8481 31.9238 55.8334 31.9386 55.8137 31.9484C55.7965 31.9558 55.7781 31.9594 55.7584 31.9594C55.7387 31.9594 55.7191 31.9545 55.6994 31.9447C55.665 31.925 55.6294 31.8943 55.5925 31.8525C55.5581 31.8108 55.5286 31.7493 55.504 31.6682C55.4819 31.5871 55.4709 31.474 55.4709 31.329C55.4709 31.2332 55.4549 31.1545 55.4229 31.0931C55.3934 31.0316 55.3541 30.9849 55.305 30.953C55.2583 30.9186 55.2054 30.8952 55.1464 30.8829C55.0899 30.8682 55.0358 30.8608 54.9842 30.8608H54.1252L54.1658 30.8092V31.8525C54.1658 31.882 54.156 31.9078 54.1363 31.93C54.1166 31.9521 54.0908 31.9631 54.0589 31.9631ZM54.1252 30.6581H55.0506C55.1341 30.6507 55.2128 30.6237 55.2865 30.577C55.3603 30.5278 55.4192 30.4614 55.4635 30.3779C55.5102 30.2943 55.5335 30.1972 55.5335 30.0866C55.5335 29.9465 55.4856 29.831 55.3897 29.7401C55.2964 29.6467 55.1735 29.6 55.0211 29.6H54.14L54.1658 29.5484V30.7097L54.1252 30.6581ZM56.5139 29.3825H57.8669C57.8964 29.3825 57.9222 29.3935 57.9443 29.4157C57.9664 29.4353 57.9775 29.4611 57.9775 29.4931C57.9775 29.525 57.9664 29.5508 57.9443 29.5705C57.9222 29.5902 57.8964 29.6 57.8669 29.6H56.5987L56.6355 29.5373V30.5733L56.595 30.5253H57.701C57.7305 30.5253 57.7563 30.5364 57.7784 30.5585C57.8005 30.5806 57.8116 30.6065 57.8116 30.6359C57.8116 30.6679 57.8005 30.6937 57.7784 30.7134C57.7563 30.733 57.7305 30.7429 57.701 30.7429H56.6024L56.6355 30.706V31.7677L56.6171 31.7456H57.8669C57.8964 31.7456 57.9222 31.7567 57.9443 31.7788C57.9664 31.8009 57.9775 31.8267 57.9775 31.8562C57.9775 31.8882 57.9664 31.914 57.9443 31.9336C57.9222 31.9533 57.8964 31.9631 57.8669 31.9631H56.5139C56.4844 31.9631 56.4586 31.9521 56.4365 31.93C56.4143 31.9078 56.4033 31.882 56.4033 31.8525V29.4931C56.4033 29.4636 56.4143 29.4378 56.4365 29.4157C56.4586 29.3935 56.4844 29.3825 56.5139 29.3825ZM59.2101 32C59.0233 32.0025 58.8611 31.973 58.7235 31.9115C58.5859 31.8501 58.4544 31.7579 58.329 31.635C58.3167 31.6252 58.3057 31.6129 58.2959 31.5982C58.2885 31.5834 58.2848 31.5662 58.2848 31.5465C58.2848 31.517 58.2959 31.49 58.318 31.4654C58.3425 31.4409 58.3696 31.4286 58.3991 31.4286C58.4286 31.4286 58.4556 31.4409 58.4802 31.4654C58.576 31.5687 58.6842 31.6473 58.8046 31.7014C58.9275 31.7555 59.059 31.7825 59.1991 31.7825C59.317 31.7825 59.4215 31.7641 59.5124 31.7272C59.6058 31.6903 59.6796 31.6375 59.7336 31.5687C59.7877 31.4998 59.8147 31.42 59.8147 31.329C59.8147 31.216 59.784 31.125 59.7226 31.0562C59.6611 30.9849 59.58 30.9272 59.4793 30.8829C59.3785 30.8363 59.2667 30.7945 59.1438 30.7576C59.043 30.7281 58.9472 30.6949 58.8562 30.6581C58.7653 30.6187 58.6842 30.572 58.6129 30.518C58.5416 30.4614 58.4863 30.3926 58.447 30.3115C58.4077 30.2304 58.388 30.1321 58.388 30.0166C58.388 29.8863 58.4224 29.7708 58.4912 29.67C58.5601 29.5693 58.6571 29.4906 58.7825 29.4341C58.9103 29.3751 59.0578 29.3456 59.2249 29.3456C59.3699 29.3456 59.5088 29.3702 59.6415 29.4194C59.7767 29.4685 59.8836 29.541 59.9622 29.6369C59.9991 29.6762 60.0175 29.7118 60.0175 29.7438C60.0175 29.7684 60.0052 29.7929 59.9806 29.8175C59.9561 29.8421 59.929 29.8544 59.8995 29.8544C59.875 29.8544 59.8541 29.8458 59.8369 29.8286C59.7951 29.777 59.7422 29.7315 59.6783 29.6922C59.6144 29.6504 59.5432 29.6184 59.4645 29.5963C59.3883 29.5742 59.3084 29.5631 59.2249 29.5631C59.1094 29.5631 59.0049 29.5816 58.9115 29.6184C58.8206 29.6528 58.7481 29.7032 58.694 29.7696C58.6424 29.8359 58.6166 29.9158 58.6166 30.0092C58.6166 30.1124 58.6461 30.1972 58.7051 30.2636C58.7641 30.33 58.8415 30.3853 58.9373 30.4295C59.0332 30.4713 59.1352 30.5106 59.2433 30.5475C59.349 30.577 59.4498 30.6114 59.5456 30.6507C59.6439 30.6876 59.73 30.7343 59.8037 30.7908C59.8799 30.8473 59.9389 30.9186 59.9806 31.0046C60.0249 31.0906 60.047 31.1988 60.047 31.329C60.047 31.4544 60.0114 31.5674 59.9401 31.6682C59.8688 31.769 59.7705 31.8488 59.6452 31.9078C59.5223 31.9668 59.3773 31.9975 59.2101 32Z" fill="white"/>
</svg>
