<svg viewBox="0 0 217 89" fill="none" xmlns="http://www.w3.org/2000/svg">
<path d="M33.12 55.568C32.592 53.984 31.872 52.448 30.96 50.96C30.096 49.424 29.064 48.056 27.864 46.856C26.664 45.656 25.32 44.672 23.832 43.904C22.344 43.088 20.712 42.584 18.936 42.392C18.264 42.344 17.568 42.368 16.848 42.464C16.128 42.512 15.432 42.656 14.76 42.896C14.088 43.136 13.464 43.472 12.888 43.904C12.36 44.336 11.976 44.912 11.736 45.632L8.208 56.144C7.248 58.88 6.768 60.944 6.768 62.336C6.816 63.68 7.32 64.352 8.28 64.352V65H2.16V64.352C2.448 64.352 2.784 64.232 3.168 63.992C3.552 63.704 3.96 63.248 4.392 62.624C4.872 61.952 5.376 61.088 5.904 60.032C6.432 58.928 6.984 57.56 7.56 55.928L20.376 18.416L19.008 14.456H24.48L38.232 54.56C38.712 55.904 39.168 57.176 39.6 58.376C40.08 59.576 40.512 60.632 40.896 61.544C41.328 62.408 41.712 63.104 42.048 63.632C42.384 64.112 42.696 64.352 42.984 64.352V65H34.56V64.352C34.8 64.352 34.872 63.68 34.776 62.336C34.728 60.992 34.368 59.312 33.696 57.296L33.12 55.568ZM12.528 43.472C13.344 42.704 14.352 42.224 15.552 42.032C16.752 41.792 17.88 41.72 18.936 41.816C21.672 42.056 24.072 42.968 26.136 44.552C28.2 46.136 29.928 48.032 31.32 50.24L20.736 19.424L12.528 43.472ZM19.872 1.64C20.4 2.12 21.216 2.912 22.32 4.016C23.424 5.072 24.576 6.176 25.776 7.328C27.12 8.672 28.608 10.112 30.24 11.648L29.952 12.08C28.032 10.976 26.256 9.944 24.624 8.984C23.904 8.552 23.184 8.144 22.464 7.76C21.792 7.328 21.12 6.92 20.448 6.536C19.824 6.152 19.248 5.816 18.72 5.528C18.24 5.24 17.856 5 17.568 4.808C16.416 4.088 15.72 3.416 15.48 2.792C15.24 2.12 15.336 1.52 15.768 0.991996C16.2 0.415998 16.728 0.151998 17.352 0.199997C18.024 0.247997 18.864 0.727996 19.872 1.64ZM46.9406 32.888L53.7086 30.296V58.808C53.7086 60.008 53.7566 60.968 53.8526 61.688C53.9966 62.408 54.1646 62.984 54.3566 63.416C54.5486 63.8 54.7406 64.064 54.9326 64.208C55.1246 64.304 55.2686 64.352 55.3646 64.352V65H47.0126V64.352C47.1566 64.352 47.3246 64.304 47.5166 64.208C47.7086 64.064 47.8766 63.8 48.0206 63.416C48.2126 62.984 48.3806 62.408 48.5246 61.688C48.6686 60.968 48.7406 60.008 48.7406 58.808V36.56C48.5486 35.264 48.2846 34.424 47.9486 34.04C47.6126 33.656 47.3486 33.464 47.1566 33.464L46.9406 32.888ZM50.6846 24.464C49.7246 24.464 48.9086 24.152 48.2366 23.528C47.6126 22.856 47.3006 22.04 47.3006 21.08C47.3006 20.12 47.6126 19.328 48.2366 18.704C48.9086 18.032 49.7246 17.696 50.6846 17.696C51.6446 17.696 52.4366 18.032 53.0606 18.704C53.7326 19.328 54.0686 20.12 54.0686 21.08C54.0686 22.04 53.7326 22.856 53.0606 23.528C52.4366 24.152 51.6446 24.464 50.6846 24.464ZM84.8841 37.208C85.2681 39.032 85.7481 39.872 86.3241 39.728L86.5401 40.304L82.6521 41.816L82.4361 41.888L78.6921 43.328V42.68C79.2201 42.344 79.5801 41.816 79.7721 41.096C79.9641 40.328 80.0601 39.608 80.0601 38.936C79.9641 38.12 79.8201 37.328 79.6281 36.56C79.4841 35.744 79.2441 35 78.9081 34.328C78.5721 33.656 78.1161 33.104 77.5401 32.672C77.0121 32.192 76.3641 31.904 75.5961 31.808C73.5801 31.52 71.9481 31.616 70.7001 32.096C69.4521 32.576 68.4681 33.296 67.7481 34.256C67.0281 35.216 66.5001 36.344 66.1641 37.64C65.8761 38.888 65.7081 40.184 65.6601 41.528V58.808C65.6601 60.008 65.7081 60.968 65.8041 61.688C65.9481 62.408 66.1161 62.984 66.3081 63.416C66.5001 63.8 66.6921 64.064 66.8841 64.208C67.0761 64.304 67.2201 64.352 67.3161 64.352V65H58.9641V64.352C59.1081 64.352 59.2761 64.304 59.4681 64.208C59.6601 64.064 59.8281 63.8 59.9721 63.416C60.1641 62.984 60.3321 62.408 60.4761 61.688C60.6201 60.968 60.6921 60.008 60.6921 58.808V36.488C60.6921 35.288 60.6201 34.328 60.4761 33.608C60.3321 32.888 60.1641 32.336 59.9721 31.952C59.8281 31.568 59.6601 31.304 59.4681 31.16C59.2761 31.016 59.1081 30.944 58.9641 30.944V30.296H65.6601V37.136C65.9001 36.128 66.2601 35.192 66.7401 34.328C67.2201 33.416 67.8441 32.648 68.6121 32.024C69.4281 31.4 70.4121 30.92 71.5641 30.584C72.7161 30.2 74.1081 30.008 75.7401 30.008C78.4761 30.008 80.5641 30.68 82.0041 32.024C83.4921 33.368 84.4521 35.096 84.8841 37.208ZM88.5656 30.296H95.1896V48.944C95.4776 46.736 95.8616 44.744 96.3416 42.968C96.8696 41.192 97.4456 39.608 98.0696 38.216C98.5496 37.208 99.1016 36.224 99.7256 35.264C100.35 34.304 101.07 33.44 101.886 32.672C102.75 31.856 103.662 31.208 104.622 30.728C105.63 30.248 106.734 30.008 107.934 30.008C109.902 30.008 111.486 30.416 112.686 31.232C113.934 32.048 114.894 33.104 115.566 34.4C116.286 35.696 116.766 37.16 117.006 38.792C117.294 40.424 117.438 42.056 117.438 43.688V58.808C117.438 60.008 117.486 60.968 117.582 61.688C117.726 62.408 117.894 62.984 118.086 63.416C118.278 63.8 118.47 64.064 118.662 64.208C118.854 64.304 118.998 64.352 119.094 64.352V65H110.742V64.352C110.838 64.352 110.982 64.304 111.174 64.208C111.366 64.064 111.534 63.8 111.678 63.416C111.87 62.984 112.038 62.408 112.182 61.688C112.326 60.968 112.398 60.008 112.398 58.808V43.688C112.398 42.824 112.35 41.792 112.254 40.592C112.158 39.344 111.942 38.144 111.606 36.992C111.318 35.792 110.862 34.712 110.238 33.752C109.662 32.792 108.87 32.144 107.862 31.808C106.854 31.472 105.87 31.496 104.91 31.88C103.95 32.216 103.062 32.744 102.246 33.464C101.478 34.184 100.782 35 100.158 35.912C99.5336 36.824 99.0296 37.688 98.6456 38.504C97.5896 40.808 96.7496 43.64 96.1256 47C95.5016 50.312 95.1896 54.248 95.1896 58.808C95.1896 60.008 95.2376 60.968 95.3336 61.688C95.4776 62.408 95.6456 62.984 95.8376 63.416C96.0296 63.8 96.2216 64.064 96.4136 64.208C96.6056 64.304 96.7496 64.352 96.8456 64.352V65H88.5656V64.352C88.6616 64.352 88.8056 64.304 88.9976 64.208C89.1896 64.064 89.3576 63.8 89.5016 63.416C89.6936 62.984 89.8616 62.408 90.0056 61.688C90.1496 60.968 90.2216 60.008 90.2216 58.808V36.488C90.2216 35.336 90.1496 34.4 90.0056 33.68C89.8616 32.912 89.6936 32.336 89.5016 31.952C89.3576 31.568 89.1896 31.304 88.9976 31.16C88.8056 31.016 88.6616 30.944 88.5656 30.944V30.296ZM123.315 52.256C122.691 49.904 122.547 47.576 122.883 45.272C123.219 42.968 123.939 40.856 125.043 38.936C126.195 36.968 127.683 35.264 129.507 33.824C131.331 32.384 133.419 31.352 135.771 30.728C138.267 30.056 140.667 29.912 142.971 30.296C145.275 30.632 147.363 31.328 149.235 32.384C151.107 33.44 152.715 34.784 154.059 36.416C155.403 38.048 156.363 39.824 156.939 41.744C155.211 41.744 153.339 41.816 151.323 41.96C149.355 42.104 147.555 42.368 145.923 42.752C147.267 42.704 148.491 42.944 149.595 43.472C150.747 43.952 151.731 44.624 152.547 45.488C153.363 46.352 154.011 47.36 154.491 48.512C154.971 49.664 155.259 50.864 155.355 52.112C155.547 54.704 154.995 56.96 153.699 58.88C152.451 60.752 150.771 62.24 148.659 63.344C146.595 64.4 144.267 65 141.675 65.144C139.083 65.336 136.563 65 134.115 64.136C131.715 63.272 129.531 61.88 127.563 59.96C125.595 57.992 124.179 55.424 123.315 52.256ZM127.563 47.072C127.707 48.464 127.923 49.76 128.211 50.96C129.123 54.416 130.515 57.128 132.387 59.096C134.259 61.064 136.275 62.408 138.435 63.128C140.643 63.848 142.851 64.016 145.059 63.632C147.267 63.2 149.187 62.36 150.819 61.112C152.451 59.864 153.627 58.28 154.347 56.36C155.115 54.392 155.139 52.208 154.419 49.808C154.035 48.512 153.411 47.336 152.547 46.28C151.683 45.224 150.627 44.456 149.379 43.976C148.131 43.448 146.715 43.256 145.131 43.4C143.547 43.496 141.867 44.072 140.091 45.128C138.363 46.136 136.659 46.856 134.979 47.288C133.347 47.672 131.835 47.816 130.443 47.72C129.915 47.672 129.411 47.624 128.931 47.576C128.451 47.48 127.995 47.312 127.563 47.072ZM151.395 41.384C150.723 39.848 149.859 38.384 148.803 36.992C147.747 35.552 146.547 34.328 145.203 33.32C143.907 32.312 142.467 31.592 140.883 31.16C139.299 30.728 137.643 30.752 135.915 31.232C134.283 31.664 132.915 32.408 131.811 33.464C130.707 34.52 129.819 35.744 129.147 37.136C128.523 38.528 128.067 40.04 127.779 41.672C127.539 43.304 127.467 44.912 127.563 46.496C128.379 46.88 129.339 47.12 130.443 47.216C131.787 47.312 133.251 47.168 134.835 46.784C136.467 46.352 138.123 45.656 139.803 44.696C141.819 43.544 143.835 42.728 145.851 42.248C147.867 41.768 149.715 41.48 151.395 41.384ZM159.511 32.888L166.279 30.296V58.808C166.279 60.008 166.327 60.968 166.423 61.688C166.567 62.408 166.735 62.984 166.927 63.416C167.119 63.8 167.311 64.064 167.503 64.208C167.695 64.304 167.839 64.352 167.935 64.352V65H159.583V64.352C159.727 64.352 159.895 64.304 160.087 64.208C160.279 64.064 160.447 63.8 160.591 63.416C160.783 62.984 160.951 62.408 161.095 61.688C161.239 60.968 161.311 60.008 161.311 58.808V36.56C161.119 35.264 160.855 34.424 160.519 34.04C160.183 33.656 159.919 33.464 159.727 33.464L159.511 32.888ZM163.255 24.464C162.295 24.464 161.479 24.152 160.807 23.528C160.183 22.856 159.871 22.04 159.871 21.08C159.871 20.12 160.183 19.328 160.807 18.704C161.479 18.032 162.295 17.696 163.255 17.696C164.215 17.696 165.007 18.032 165.631 18.704C166.303 19.328 166.639 20.12 166.639 21.08C166.639 22.04 166.303 22.856 165.631 23.528C165.007 24.152 164.215 24.464 163.255 24.464ZM196.446 43.256C196.446 42.248 196.158 41.168 195.582 40.016C195.054 38.816 194.31 37.664 193.35 36.56C192.39 35.408 191.286 34.4 190.038 33.536C188.838 32.624 187.566 31.976 186.222 31.592C184.926 31.16 183.606 31.064 182.262 31.304C180.966 31.496 179.79 32.144 178.734 33.248C177.726 34.256 177.246 35.456 177.294 36.848C177.342 38.192 177.918 39.416 179.022 40.52C179.838 41.336 181.038 42.152 182.622 42.968C184.254 43.784 186.39 44.528 189.03 45.2C190.998 45.728 192.654 46.352 193.998 47.072C195.342 47.792 196.446 48.56 197.31 49.376C198.702 50.768 199.518 52.328 199.758 54.056C199.998 55.784 199.638 57.512 198.678 59.24C198.198 60.056 197.622 60.824 196.95 61.544C196.326 62.216 195.63 62.768 194.862 63.2C194.094 63.728 193.23 64.184 192.27 64.568C191.358 64.904 190.398 65.168 189.39 65.36C188.382 65.6 187.374 65.744 186.366 65.792C185.358 65.888 184.398 65.912 183.486 65.864C181.758 65.72 179.934 65.36 178.014 64.784C176.142 64.16 174.174 63.224 172.11 61.976L171.534 61.616L173.262 53.624L173.838 53.768C173.742 54.2 173.838 54.752 174.126 55.424C174.414 56.096 174.774 56.792 175.206 57.512C175.638 58.232 176.094 58.904 176.574 59.528C177.054 60.104 177.462 60.536 177.798 60.824C178.758 61.784 179.814 62.552 180.966 63.128C182.118 63.656 183.318 64.04 184.566 64.28C185.766 64.52 186.942 64.616 188.094 64.568C189.294 64.52 190.422 64.352 191.478 64.064C192.054 63.92 192.582 63.752 193.062 63.56C193.542 63.32 194.046 63.056 194.574 62.768C195.054 62.432 195.486 62.072 195.87 61.688C196.206 61.304 196.494 60.896 196.734 60.464C197.022 60.032 197.214 59.576 197.31 59.096C197.406 58.328 197.358 57.632 197.166 57.008C196.83 56.096 196.254 55.328 195.438 54.704C194.67 54.032 193.758 53.48 192.702 53.048C191.646 52.568 190.494 52.16 189.246 51.824C188.046 51.488 186.846 51.128 185.646 50.744C183.342 50.072 181.302 49.112 179.526 47.864C177.798 46.616 176.526 45.2 175.71 43.616C174.942 41.984 174.702 40.256 174.99 38.432C175.326 36.608 176.43 34.76 178.302 32.888C179.55 31.592 181.182 30.8 183.198 30.512C185.262 30.176 187.326 30.176 189.39 30.512C191.502 30.8 193.398 31.376 195.078 32.24C196.806 33.056 197.982 33.992 198.606 35.048L196.806 43.256H196.446Z" fill="black"/>
<path d="M55.87 86.1C55.3633 86.1067 54.9233 86.0267 54.55 85.86C54.1767 85.6933 53.82 85.4433 53.48 85.11C53.4467 85.0833 53.4167 85.05 53.39 85.01C53.37 84.97 53.36 84.9233 53.36 84.87C53.36 84.79 53.39 84.7167 53.45 84.65C53.5167 84.5833 53.59 84.55 53.67 84.55C53.75 84.55 53.8233 84.5833 53.89 84.65C54.15 84.93 54.4433 85.1433 54.77 85.29C55.1033 85.4367 55.46 85.51 55.84 85.51C56.16 85.51 56.4433 85.46 56.69 85.36C56.9433 85.26 57.1433 85.1167 57.29 84.93C57.4367 84.7433 57.51 84.5267 57.51 84.28C57.51 83.9733 57.4267 83.7267 57.26 83.54C57.0933 83.3467 56.8733 83.19 56.6 83.07C56.3267 82.9433 56.0233 82.83 55.69 82.73C55.4167 82.65 55.1567 82.56 54.91 82.46C54.6633 82.3533 54.4433 82.2267 54.25 82.08C54.0567 81.9267 53.9067 81.74 53.8 81.52C53.6933 81.3 53.64 81.0333 53.64 80.72C53.64 80.3667 53.7333 80.0533 53.92 79.78C54.1067 79.5067 54.37 79.2933 54.71 79.14C55.0567 78.98 55.4567 78.9 55.91 78.9C56.3033 78.9 56.68 78.9667 57.04 79.1C57.4067 79.2333 57.6967 79.43 57.91 79.69C58.01 79.7967 58.06 79.8933 58.06 79.98C58.06 80.0467 58.0267 80.1133 57.96 80.18C57.8933 80.2467 57.82 80.28 57.74 80.28C57.6733 80.28 57.6167 80.2567 57.57 80.21C57.4567 80.07 57.3133 79.9467 57.14 79.84C56.9667 79.7267 56.7733 79.64 56.56 79.58C56.3533 79.52 56.1367 79.49 55.91 79.49C55.5967 79.49 55.3133 79.54 55.06 79.64C54.8133 79.7333 54.6167 79.87 54.47 80.05C54.33 80.23 54.26 80.4467 54.26 80.7C54.26 80.98 54.34 81.21 54.5 81.39C54.66 81.57 54.87 81.72 55.13 81.84C55.39 81.9533 55.6667 82.06 55.96 82.16C56.2467 82.24 56.52 82.3333 56.78 82.44C57.0467 82.54 57.28 82.6667 57.48 82.82C57.6867 82.9733 57.8467 83.1667 57.96 83.4C58.08 83.6333 58.14 83.9267 58.14 84.28C58.14 84.62 58.0433 84.9267 57.85 85.2C57.6567 85.4733 57.39 85.69 57.05 85.85C56.7167 86.01 56.3233 86.0933 55.87 86.1ZM64.6652 79.52C64.7452 79.5733 64.7919 79.6433 64.8052 79.73C64.8186 79.81 64.7986 79.89 64.7452 79.97C64.6986 80.03 64.6386 80.0633 64.5652 80.07C64.4919 80.0767 64.4219 80.0633 64.3552 80.03C64.1019 79.8633 63.8286 79.7333 63.5352 79.64C63.2486 79.5467 62.9386 79.5 62.6052 79.5C62.1986 79.5 61.8186 79.5733 61.4652 79.72C61.1186 79.86 60.8152 80.0667 60.5552 80.34C60.2952 80.6067 60.0919 80.9233 59.9452 81.29C59.8052 81.6567 59.7352 82.06 59.7352 82.5C59.7352 82.9533 59.8086 83.3667 59.9552 83.74C60.1019 84.1067 60.3052 84.4233 60.5652 84.69C60.8319 84.9567 61.1386 85.16 61.4852 85.3C61.8319 85.44 62.2052 85.51 62.6052 85.51C62.9319 85.51 63.2386 85.4633 63.5252 85.37C63.8186 85.2767 64.0919 85.15 64.3452 84.99C64.4119 84.95 64.4819 84.9367 64.5552 84.95C64.6352 84.9567 64.6986 84.9933 64.7452 85.06C64.8052 85.1333 64.8252 85.2133 64.8052 85.3C64.7919 85.38 64.7486 85.4433 64.6752 85.49C64.5086 85.5967 64.3119 85.6967 64.0852 85.79C63.8586 85.8833 63.6186 85.9567 63.3652 86.01C63.1119 86.07 62.8586 86.1 62.6052 86.1C62.1252 86.1 61.6752 86.0133 61.2552 85.84C60.8352 85.6667 60.4619 85.4233 60.1352 85.11C59.8086 84.79 59.5519 84.41 59.3652 83.97C59.1852 83.53 59.0952 83.04 59.0952 82.5C59.0952 81.98 59.1852 81.5033 59.3652 81.07C59.5452 80.63 59.7952 80.25 60.1152 79.93C60.4352 79.61 60.8086 79.36 61.2352 79.18C61.6619 79 62.1186 78.91 62.6052 78.91C62.9852 78.91 63.3519 78.9633 63.7052 79.07C64.0586 79.1767 64.3786 79.3267 64.6652 79.52ZM72.3284 82.5C72.3284 83.0267 72.2451 83.51 72.0784 83.95C71.9184 84.3833 71.6884 84.7633 71.3884 85.09C71.0884 85.41 70.7318 85.66 70.3184 85.84C69.9118 86.0133 69.4651 86.1 68.9784 86.1C68.4918 86.1 68.0418 86.0133 67.6284 85.84C67.2218 85.66 66.8684 85.41 66.5684 85.09C66.2684 84.7633 66.0351 84.3833 65.8684 83.95C65.7084 83.51 65.6284 83.0267 65.6284 82.5C65.6284 81.9733 65.7084 81.4933 65.8684 81.06C66.0351 80.62 66.2684 80.24 66.5684 79.92C66.8684 79.5933 67.2218 79.3433 67.6284 79.17C68.0418 78.99 68.4918 78.9 68.9784 78.9C69.4651 78.9 69.9118 78.99 70.3184 79.17C70.7318 79.3433 71.0884 79.5933 71.3884 79.92C71.6884 80.24 71.9184 80.62 72.0784 81.06C72.2451 81.4933 72.3284 81.9733 72.3284 82.5ZM71.6884 82.5C71.6884 81.9067 71.5718 81.3867 71.3384 80.94C71.1118 80.4867 70.7951 80.1333 70.3884 79.88C69.9818 79.6267 69.5118 79.5 68.9784 79.5C68.4518 79.5 67.9818 79.6267 67.5684 79.88C67.1618 80.1333 66.8418 80.4867 66.6084 80.94C66.3818 81.3867 66.2684 81.9067 66.2684 82.5C66.2684 83.0933 66.3818 83.6167 66.6084 84.07C66.8418 84.5167 67.1618 84.8667 67.5684 85.12C67.9818 85.3733 68.4518 85.5 68.9784 85.5C69.5118 85.5 69.9818 85.3733 70.3884 85.12C70.7951 84.8667 71.1118 84.5167 71.3384 84.07C71.5718 83.6167 71.6884 83.0933 71.6884 82.5ZM75.6294 86C75.536 86 75.4594 85.97 75.3994 85.91C75.346 85.85 75.3194 85.78 75.3194 85.7V79.33H75.9394V85.7C75.9394 85.78 75.9094 85.85 75.8494 85.91C75.7894 85.97 75.716 86 75.6294 86ZM73.2494 79.57C73.1694 79.57 73.0994 79.5433 73.0394 79.49C72.9794 79.4367 72.9494 79.3667 72.9494 79.28C72.9494 79.2 72.9794 79.1333 73.0394 79.08C73.0994 79.0267 73.1694 79 73.2494 79H78.0094C78.0894 79 78.1594 79.0267 78.2194 79.08C78.2794 79.1333 78.3094 79.2033 78.3094 79.29C78.3094 79.3767 78.2794 79.4467 78.2194 79.5C78.1594 79.5467 78.0894 79.57 78.0094 79.57H73.2494ZM81.9673 86C81.8739 86 81.7973 85.97 81.7373 85.91C81.6839 85.85 81.6573 85.78 81.6573 85.7V79.33H82.2773V85.7C82.2773 85.78 82.2473 85.85 82.1873 85.91C82.1273 85.97 82.0539 86 81.9673 86ZM79.5873 79.57C79.5073 79.57 79.4373 79.5433 79.3773 79.49C79.3173 79.4367 79.2873 79.3667 79.2873 79.28C79.2873 79.2 79.3173 79.1333 79.3773 79.08C79.4373 79.0267 79.5073 79 79.5873 79H84.3473C84.4273 79 84.4973 79.0267 84.5573 79.08C84.6173 79.1333 84.6473 79.2033 84.6473 79.29C84.6473 79.3767 84.6173 79.4467 84.5573 79.5C84.4973 79.5467 84.4273 79.57 84.3473 79.57H79.5873ZM86.5524 85.69C86.5458 85.7767 86.5091 85.85 86.4424 85.91C86.3824 85.97 86.3124 86 86.2324 86C86.1391 86 86.0624 85.97 86.0024 85.91C85.9491 85.85 85.9224 85.7767 85.9224 85.69V79.31C85.9224 79.2233 85.9524 79.15 86.0124 79.09C86.0724 79.03 86.1491 79 86.2424 79C86.3224 79 86.3924 79.03 86.4524 79.09C86.5191 79.15 86.5524 79.2233 86.5524 79.31V85.69ZM90.3524 86.1C89.8458 86.1067 89.4058 86.0267 89.0324 85.86C88.6591 85.6933 88.3024 85.4433 87.9624 85.11C87.9291 85.0833 87.8991 85.05 87.8724 85.01C87.8524 84.97 87.8424 84.9233 87.8424 84.87C87.8424 84.79 87.8724 84.7167 87.9324 84.65C87.9991 84.5833 88.0724 84.55 88.1524 84.55C88.2324 84.55 88.3058 84.5833 88.3724 84.65C88.6324 84.93 88.9258 85.1433 89.2524 85.29C89.5858 85.4367 89.9424 85.51 90.3224 85.51C90.6424 85.51 90.9258 85.46 91.1724 85.36C91.4258 85.26 91.6258 85.1167 91.7724 84.93C91.9191 84.7433 91.9924 84.5267 91.9924 84.28C91.9924 83.9733 91.9091 83.7267 91.7424 83.54C91.5758 83.3467 91.3558 83.19 91.0824 83.07C90.8091 82.9433 90.5058 82.83 90.1724 82.73C89.8991 82.65 89.6391 82.56 89.3924 82.46C89.1458 82.3533 88.9258 82.2267 88.7324 82.08C88.5391 81.9267 88.3891 81.74 88.2824 81.52C88.1758 81.3 88.1224 81.0333 88.1224 80.72C88.1224 80.3667 88.2158 80.0533 88.4024 79.78C88.5891 79.5067 88.8524 79.2933 89.1924 79.14C89.5391 78.98 89.9391 78.9 90.3924 78.9C90.7858 78.9 91.1624 78.9667 91.5224 79.1C91.8891 79.2333 92.1791 79.43 92.3924 79.69C92.4924 79.7967 92.5424 79.8933 92.5424 79.98C92.5424 80.0467 92.5091 80.1133 92.4424 80.18C92.3758 80.2467 92.3024 80.28 92.2224 80.28C92.1558 80.28 92.0991 80.2567 92.0524 80.21C91.9391 80.07 91.7958 79.9467 91.6224 79.84C91.4491 79.7267 91.2558 79.64 91.0424 79.58C90.8358 79.52 90.6191 79.49 90.3924 79.49C90.0791 79.49 89.7958 79.54 89.5424 79.64C89.2958 79.7333 89.0991 79.87 88.9524 80.05C88.8124 80.23 88.7424 80.4467 88.7424 80.7C88.7424 80.98 88.8224 81.21 88.9824 81.39C89.1424 81.57 89.3524 81.72 89.6124 81.84C89.8724 81.9533 90.1491 82.06 90.4424 82.16C90.7291 82.24 91.0024 82.3333 91.2624 82.44C91.5291 82.54 91.7624 82.6667 91.9624 82.82C92.1691 82.9733 92.3291 83.1667 92.4424 83.4C92.5624 83.6333 92.6224 83.9267 92.6224 84.28C92.6224 84.62 92.5258 84.9267 92.3324 85.2C92.1391 85.4733 91.8724 85.69 91.5324 85.85C91.1991 86.01 90.8058 86.0933 90.3524 86.1ZM94.3577 79C94.4377 79 94.5077 79.03 94.5677 79.09C94.6343 79.15 94.6677 79.2233 94.6677 79.31V85.69C94.661 85.7767 94.6243 85.85 94.5577 85.91C94.4977 85.97 94.4277 86 94.3477 86C94.2543 86 94.1777 85.97 94.1177 85.91C94.0643 85.85 94.0377 85.7767 94.0377 85.69V79.31C94.0377 79.2233 94.0677 79.15 94.1277 79.09C94.1877 79.03 94.2643 79 94.3577 79ZM99.0477 79C99.141 79 99.2143 79.03 99.2677 79.09C99.3277 79.15 99.3577 79.2233 99.3577 79.31V85.69C99.351 85.7767 99.3177 85.85 99.2577 85.91C99.2043 85.97 99.131 86 99.0377 86C98.951 86 98.8777 85.97 98.8177 85.91C98.7577 85.85 98.7277 85.7767 98.7277 85.69V79.31C98.7277 79.2233 98.7577 79.15 98.8177 79.09C98.8843 79.03 98.961 79 99.0477 79ZM94.3077 82.13H99.0577L99.0477 82.71H94.2677L94.3077 82.13ZM104.279 86C104.186 86 104.109 85.97 104.049 85.91C103.996 85.85 103.969 85.78 103.969 85.7V79.3C103.969 79.22 103.999 79.15 104.059 79.09C104.119 79.03 104.189 79 104.269 79H107.909C107.996 79 108.066 79.03 108.119 79.09C108.179 79.1433 108.209 79.2133 108.209 79.3C108.209 79.38 108.179 79.45 108.119 79.51C108.066 79.5633 107.996 79.59 107.909 79.59H104.539L104.579 79.53V82.19L104.529 82.1H107.459C107.546 82.1 107.616 82.13 107.669 82.19C107.729 82.2433 107.759 82.31 107.759 82.39C107.759 82.4767 107.729 82.5467 107.669 82.6C107.616 82.6533 107.546 82.68 107.459 82.68H104.509L104.579 82.6V85.7C104.579 85.78 104.549 85.85 104.489 85.91C104.436 85.97 104.366 86 104.279 86ZM114.583 79C114.677 79 114.75 79.03 114.803 79.09C114.857 79.1433 114.883 79.2133 114.883 79.3V83.44C114.883 83.9333 114.767 84.38 114.533 84.78C114.3 85.18 113.987 85.5 113.593 85.74C113.2 85.9733 112.757 86.09 112.263 86.09C111.77 86.09 111.323 85.9733 110.923 85.74C110.53 85.5 110.217 85.18 109.983 84.78C109.75 84.38 109.633 83.9333 109.633 83.44V79.3C109.633 79.2133 109.66 79.1433 109.713 79.09C109.773 79.03 109.853 79 109.953 79C110.033 79 110.103 79.03 110.163 79.09C110.223 79.1433 110.253 79.2133 110.253 79.3V83.44C110.253 83.8267 110.343 84.1733 110.523 84.48C110.71 84.7867 110.957 85.0333 111.263 85.22C111.57 85.4 111.903 85.49 112.263 85.49C112.637 85.49 112.977 85.4 113.283 85.22C113.59 85.0333 113.833 84.7867 114.013 84.48C114.2 84.1733 114.293 83.8267 114.293 83.44V79.3C114.293 79.2133 114.32 79.1433 114.373 79.09C114.427 79.03 114.497 79 114.583 79ZM117.102 86C117.002 86 116.919 85.97 116.852 85.91C116.792 85.85 116.762 85.78 116.762 85.7V79.3C116.762 79.22 116.792 79.15 116.852 79.09C116.912 79.03 116.982 79 117.062 79H119.762C120.142 79 120.482 79.0833 120.782 79.25C121.082 79.41 121.316 79.6333 121.482 79.92C121.656 80.2067 121.742 80.53 121.742 80.89C121.742 81.1833 121.689 81.4533 121.582 81.7C121.476 81.9467 121.326 82.1567 121.132 82.33C120.939 82.4967 120.722 82.62 120.482 82.7L120.132 82.59C120.379 82.61 120.609 82.69 120.822 82.83C121.036 82.9633 121.206 83.15 121.332 83.39C121.466 83.6233 121.536 83.9067 121.542 84.24C121.549 84.5267 121.562 84.75 121.582 84.91C121.609 85.07 121.646 85.19 121.692 85.27C121.739 85.35 121.799 85.4133 121.872 85.46C121.939 85.5 121.982 85.5567 122.002 85.63C122.029 85.7033 122.022 85.7733 121.982 85.84C121.956 85.8933 121.916 85.9333 121.862 85.96C121.816 85.98 121.766 85.99 121.712 85.99C121.659 85.99 121.606 85.9767 121.552 85.95C121.459 85.8967 121.362 85.8133 121.262 85.7C121.169 85.5867 121.089 85.42 121.022 85.2C120.962 84.98 120.932 84.6733 120.932 84.28C120.932 84.02 120.889 83.8067 120.802 83.64C120.722 83.4733 120.616 83.3467 120.482 83.26C120.356 83.1667 120.212 83.1033 120.052 83.07C119.899 83.03 119.752 83.01 119.612 83.01H117.282L117.392 82.87V85.7C117.392 85.78 117.366 85.85 117.312 85.91C117.259 85.97 117.189 86 117.102 86ZM117.282 82.46H119.792C120.019 82.44 120.232 82.3667 120.432 82.24C120.632 82.1067 120.792 81.9267 120.912 81.7C121.039 81.4733 121.102 81.21 121.102 80.91C121.102 80.53 120.972 80.2167 120.712 79.97C120.459 79.7167 120.126 79.59 119.712 79.59H117.322L117.392 79.45V82.6L117.282 82.46ZM128.581 79C128.668 79 128.735 79.0267 128.781 79.08C128.835 79.1333 128.861 79.2 128.861 79.28V85.68C128.861 85.78 128.828 85.86 128.761 85.92C128.701 85.9733 128.631 86 128.551 86C128.511 86 128.468 85.9933 128.421 85.98C128.375 85.96 128.338 85.9333 128.311 85.9L123.851 79.89L124.021 79.8V85.73C124.021 85.8033 123.995 85.8667 123.941 85.92C123.888 85.9733 123.821 86 123.741 86C123.655 86 123.585 85.9733 123.531 85.92C123.485 85.8667 123.461 85.8033 123.461 85.73V79.3C123.461 79.2 123.491 79.1267 123.551 79.08C123.611 79.0267 123.678 79 123.751 79C123.791 79 123.835 79.01 123.881 79.03C123.928 79.0433 123.965 79.07 123.991 79.11L128.401 85.05L128.301 85.23V79.28C128.301 79.2 128.328 79.1333 128.381 79.08C128.441 79.0267 128.508 79 128.581 79ZM131.367 85.69C131.36 85.7767 131.324 85.85 131.257 85.91C131.197 85.97 131.127 86 131.047 86C130.954 86 130.877 85.97 130.817 85.91C130.764 85.85 130.737 85.7767 130.737 85.69V79.31C130.737 79.2233 130.767 79.15 130.827 79.09C130.887 79.03 130.964 79 131.057 79C131.137 79 131.207 79.03 131.267 79.09C131.334 79.15 131.367 79.2233 131.367 79.31V85.69ZM135.317 86C135.224 86 135.147 85.97 135.087 85.91C135.034 85.85 135.007 85.78 135.007 85.7V79.33H135.627V85.7C135.627 85.78 135.597 85.85 135.537 85.91C135.477 85.97 135.404 86 135.317 86ZM132.937 79.57C132.857 79.57 132.787 79.5433 132.727 79.49C132.667 79.4367 132.637 79.3667 132.637 79.28C132.637 79.2 132.667 79.1333 132.727 79.08C132.787 79.0267 132.857 79 132.937 79H137.697C137.777 79 137.847 79.0267 137.907 79.08C137.967 79.1333 137.997 79.2033 137.997 79.29C137.997 79.3767 137.967 79.4467 137.907 79.5C137.847 79.5467 137.777 79.57 137.697 79.57H132.937ZM144.222 79C144.315 79 144.389 79.03 144.442 79.09C144.495 79.1433 144.522 79.2133 144.522 79.3V83.44C144.522 83.9333 144.405 84.38 144.172 84.78C143.939 85.18 143.625 85.5 143.232 85.74C142.839 85.9733 142.395 86.09 141.902 86.09C141.409 86.09 140.962 85.9733 140.562 85.74C140.169 85.5 139.855 85.18 139.622 84.78C139.389 84.38 139.272 83.9333 139.272 83.44V79.3C139.272 79.2133 139.299 79.1433 139.352 79.09C139.412 79.03 139.492 79 139.592 79C139.672 79 139.742 79.03 139.802 79.09C139.862 79.1433 139.892 79.2133 139.892 79.3V83.44C139.892 83.8267 139.982 84.1733 140.162 84.48C140.349 84.7867 140.595 85.0333 140.902 85.22C141.209 85.4 141.542 85.49 141.902 85.49C142.275 85.49 142.615 85.4 142.922 85.22C143.229 85.0333 143.472 84.7867 143.652 84.48C143.839 84.1733 143.932 83.8267 143.932 83.44V79.3C143.932 79.2133 143.959 79.1433 144.012 79.09C144.065 79.03 144.135 79 144.222 79ZM146.741 86C146.641 86 146.558 85.97 146.491 85.91C146.431 85.85 146.401 85.78 146.401 85.7V79.3C146.401 79.22 146.431 79.15 146.491 79.09C146.551 79.03 146.621 79 146.701 79H149.401C149.781 79 150.121 79.0833 150.421 79.25C150.721 79.41 150.954 79.6333 151.121 79.92C151.294 80.2067 151.381 80.53 151.381 80.89C151.381 81.1833 151.328 81.4533 151.221 81.7C151.114 81.9467 150.964 82.1567 150.771 82.33C150.578 82.4967 150.361 82.62 150.121 82.7L149.771 82.59C150.018 82.61 150.248 82.69 150.461 82.83C150.674 82.9633 150.844 83.15 150.971 83.39C151.104 83.6233 151.174 83.9067 151.181 84.24C151.188 84.5267 151.201 84.75 151.221 84.91C151.248 85.07 151.284 85.19 151.331 85.27C151.378 85.35 151.438 85.4133 151.511 85.46C151.578 85.5 151.621 85.5567 151.641 85.63C151.668 85.7033 151.661 85.7733 151.621 85.84C151.594 85.8933 151.554 85.9333 151.501 85.96C151.454 85.98 151.404 85.99 151.351 85.99C151.298 85.99 151.244 85.9767 151.191 85.95C151.098 85.8967 151.001 85.8133 150.901 85.7C150.808 85.5867 150.728 85.42 150.661 85.2C150.601 84.98 150.571 84.6733 150.571 84.28C150.571 84.02 150.528 83.8067 150.441 83.64C150.361 83.4733 150.254 83.3467 150.121 83.26C149.994 83.1667 149.851 83.1033 149.691 83.07C149.538 83.03 149.391 83.01 149.251 83.01H146.921L147.031 82.87V85.7C147.031 85.78 147.004 85.85 146.951 85.91C146.898 85.97 146.828 86 146.741 86ZM146.921 82.46H149.431C149.658 82.44 149.871 82.3667 150.071 82.24C150.271 82.1067 150.431 81.9267 150.551 81.7C150.678 81.4733 150.741 81.21 150.741 80.91C150.741 80.53 150.611 80.2167 150.351 79.97C150.098 79.7167 149.764 79.59 149.351 79.59H146.961L147.031 79.45V82.6L146.921 82.46ZM153.4 79H157.07C157.15 79 157.22 79.03 157.28 79.09C157.34 79.1433 157.37 79.2133 157.37 79.3C157.37 79.3867 157.34 79.4567 157.28 79.51C157.22 79.5633 157.15 79.59 157.07 79.59H153.63L153.73 79.42V82.23L153.62 82.1H156.62C156.7 82.1 156.77 82.13 156.83 82.19C156.89 82.25 156.92 82.32 156.92 82.4C156.92 82.4867 156.89 82.5567 156.83 82.61C156.77 82.6633 156.7 82.69 156.62 82.69H153.64L153.73 82.59V85.47L153.68 85.41H157.07C157.15 85.41 157.22 85.44 157.28 85.5C157.34 85.56 157.37 85.63 157.37 85.71C157.37 85.7967 157.34 85.8667 157.28 85.92C157.22 85.9733 157.15 86 157.07 86H153.4C153.32 86 153.25 85.97 153.19 85.91C153.13 85.85 153.1 85.78 153.1 85.7V79.3C153.1 79.22 153.13 79.15 153.19 79.09C153.25 79.03 153.32 79 153.4 79ZM160.714 86.1C160.207 86.1067 159.767 86.0267 159.394 85.86C159.02 85.6933 158.664 85.4433 158.324 85.11C158.29 85.0833 158.26 85.05 158.234 85.01C158.214 84.97 158.204 84.9233 158.204 84.87C158.204 84.79 158.234 84.7167 158.294 84.65C158.36 84.5833 158.434 84.55 158.514 84.55C158.594 84.55 158.667 84.5833 158.734 84.65C158.994 84.93 159.287 85.1433 159.614 85.29C159.947 85.4367 160.304 85.51 160.684 85.51C161.004 85.51 161.287 85.46 161.534 85.36C161.787 85.26 161.987 85.1167 162.134 84.93C162.28 84.7433 162.354 84.5267 162.354 84.28C162.354 83.9733 162.27 83.7267 162.104 83.54C161.937 83.3467 161.717 83.19 161.444 83.07C161.17 82.9433 160.867 82.83 160.534 82.73C160.26 82.65 160 82.56 159.754 82.46C159.507 82.3533 159.287 82.2267 159.094 82.08C158.9 81.9267 158.75 81.74 158.644 81.52C158.537 81.3 158.484 81.0333 158.484 80.72C158.484 80.3667 158.577 80.0533 158.764 79.78C158.95 79.5067 159.214 79.2933 159.554 79.14C159.9 78.98 160.3 78.9 160.754 78.9C161.147 78.9 161.524 78.9667 161.884 79.1C162.25 79.2333 162.54 79.43 162.754 79.69C162.854 79.7967 162.904 79.8933 162.904 79.98C162.904 80.0467 162.87 80.1133 162.804 80.18C162.737 80.2467 162.664 80.28 162.584 80.28C162.517 80.28 162.46 80.2567 162.414 80.21C162.3 80.07 162.157 79.9467 161.984 79.84C161.81 79.7267 161.617 79.64 161.404 79.58C161.197 79.52 160.98 79.49 160.754 79.49C160.44 79.49 160.157 79.54 159.904 79.64C159.657 79.7333 159.46 79.87 159.314 80.05C159.174 80.23 159.104 80.4467 159.104 80.7C159.104 80.98 159.184 81.21 159.344 81.39C159.504 81.57 159.714 81.72 159.974 81.84C160.234 81.9533 160.51 82.06 160.804 82.16C161.09 82.24 161.364 82.3333 161.624 82.44C161.89 82.54 162.124 82.6667 162.324 82.82C162.53 82.9733 162.69 83.1667 162.804 83.4C162.924 83.6333 162.984 83.9267 162.984 84.28C162.984 84.62 162.887 84.9267 162.694 85.2C162.5 85.4733 162.234 85.69 161.894 85.85C161.56 86.01 161.167 86.0933 160.714 86.1Z" fill="black"/>
</svg>
