<svg viewBox="0 0 217 91" fill="none" xmlns="http://www.w3.org/2000/svg">
<path d="M33.12 55.568C32.592 53.984 31.872 52.448 30.96 50.96C30.096 49.424 29.064 48.056 27.864 46.856C26.664 45.656 25.32 44.672 23.832 43.904C22.344 43.088 20.712 42.584 18.936 42.392C18.264 42.344 17.568 42.368 16.848 42.464C16.128 42.512 15.432 42.656 14.76 42.896C14.088 43.136 13.464 43.472 12.888 43.904C12.36 44.336 11.976 44.912 11.736 45.632L8.208 56.144C7.248 58.88 6.768 60.944 6.768 62.336C6.816 63.68 7.32 64.352 8.28 64.352V65H2.16V64.352C2.448 64.352 2.784 64.232 3.168 63.992C3.552 63.704 3.96 63.248 4.392 62.624C4.872 61.952 5.376 61.088 5.904 60.032C6.432 58.928 6.984 57.56 7.56 55.928L20.376 18.416L19.008 14.456H24.48L38.232 54.56C38.712 55.904 39.168 57.176 39.6 58.376C40.08 59.576 40.512 60.632 40.896 61.544C41.328 62.408 41.712 63.104 42.048 63.632C42.384 64.112 42.696 64.352 42.984 64.352V65H34.56V64.352C34.8 64.352 34.872 63.68 34.776 62.336C34.728 60.992 34.368 59.312 33.696 57.296L33.12 55.568ZM12.528 43.472C13.344 42.704 14.352 42.224 15.552 42.032C16.752 41.792 17.88 41.72 18.936 41.816C21.672 42.056 24.072 42.968 26.136 44.552C28.2 46.136 29.928 48.032 31.32 50.24L20.736 19.424L12.528 43.472ZM19.872 1.64C20.4 2.12 21.216 2.912 22.32 4.016C23.424 5.072 24.576 6.176 25.776 7.328C27.12 8.672 28.608 10.112 30.24 11.648L29.952 12.08C28.032 10.976 26.256 9.944 24.624 8.984C23.904 8.552 23.184 8.144 22.464 7.76C21.792 7.328 21.12 6.92 20.448 6.536C19.824 6.152 19.248 5.816 18.72 5.528C18.24 5.24 17.856 5 17.568 4.808C16.416 4.088 15.72 3.416 15.48 2.792C15.24 2.12 15.336 1.52 15.768 0.991996C16.2 0.415998 16.728 0.151998 17.352 0.199997C18.024 0.247997 18.864 0.727996 19.872 1.64ZM46.9406 32.888L53.7086 30.296V58.808C53.7086 60.008 53.7566 60.968 53.8526 61.688C53.9966 62.408 54.1646 62.984 54.3566 63.416C54.5486 63.8 54.7406 64.064 54.9326 64.208C55.1246 64.304 55.2686 64.352 55.3646 64.352V65H47.0126V64.352C47.1566 64.352 47.3246 64.304 47.5166 64.208C47.7086 64.064 47.8766 63.8 48.0206 63.416C48.2126 62.984 48.3806 62.408 48.5246 61.688C48.6686 60.968 48.7406 60.008 48.7406 58.808V36.56C48.5486 35.264 48.2846 34.424 47.9486 34.04C47.6126 33.656 47.3486 33.464 47.1566 33.464L46.9406 32.888ZM50.6846 24.464C49.7246 24.464 48.9086 24.152 48.2366 23.528C47.6126 22.856 47.3006 22.04 47.3006 21.08C47.3006 20.12 47.6126 19.328 48.2366 18.704C48.9086 18.032 49.7246 17.696 50.6846 17.696C51.6446 17.696 52.4366 18.032 53.0606 18.704C53.7326 19.328 54.0686 20.12 54.0686 21.08C54.0686 22.04 53.7326 22.856 53.0606 23.528C52.4366 24.152 51.6446 24.464 50.6846 24.464ZM84.8841 37.208C85.2681 39.032 85.7481 39.872 86.3241 39.728L86.5401 40.304L82.6521 41.816L82.4361 41.888L78.6921 43.328V42.68C79.2201 42.344 79.5801 41.816 79.7721 41.096C79.9641 40.328 80.0601 39.608 80.0601 38.936C79.9641 38.12 79.8201 37.328 79.6281 36.56C79.4841 35.744 79.2441 35 78.9081 34.328C78.5721 33.656 78.1161 33.104 77.5401 32.672C77.0121 32.192 76.3641 31.904 75.5961 31.808C73.5801 31.52 71.9481 31.616 70.7001 32.096C69.4521 32.576 68.4681 33.296 67.7481 34.256C67.0281 35.216 66.5001 36.344 66.1641 37.64C65.8761 38.888 65.7081 40.184 65.6601 41.528V58.808C65.6601 60.008 65.7081 60.968 65.8041 61.688C65.9481 62.408 66.1161 62.984 66.3081 63.416C66.5001 63.8 66.6921 64.064 66.8841 64.208C67.0761 64.304 67.2201 64.352 67.3161 64.352V65H58.9641V64.352C59.1081 64.352 59.2761 64.304 59.4681 64.208C59.6601 64.064 59.8281 63.8 59.9721 63.416C60.1641 62.984 60.3321 62.408 60.4761 61.688C60.6201 60.968 60.6921 60.008 60.6921 58.808V36.488C60.6921 35.288 60.6201 34.328 60.4761 33.608C60.3321 32.888 60.1641 32.336 59.9721 31.952C59.8281 31.568 59.6601 31.304 59.4681 31.16C59.2761 31.016 59.1081 30.944 58.9641 30.944V30.296H65.6601V37.136C65.9001 36.128 66.2601 35.192 66.7401 34.328C67.2201 33.416 67.8441 32.648 68.6121 32.024C69.4281 31.4 70.4121 30.92 71.5641 30.584C72.7161 30.2 74.1081 30.008 75.7401 30.008C78.4761 30.008 80.5641 30.68 82.0041 32.024C83.4921 33.368 84.4521 35.096 84.8841 37.208ZM88.5656 30.296H95.1896V48.944C95.4776 46.736 95.8616 44.744 96.3416 42.968C96.8696 41.192 97.4456 39.608 98.0696 38.216C98.5496 37.208 99.1016 36.224 99.7256 35.264C100.35 34.304 101.07 33.44 101.886 32.672C102.75 31.856 103.662 31.208 104.622 30.728C105.63 30.248 106.734 30.008 107.934 30.008C109.902 30.008 111.486 30.416 112.686 31.232C113.934 32.048 114.894 33.104 115.566 34.4C116.286 35.696 116.766 37.16 117.006 38.792C117.294 40.424 117.438 42.056 117.438 43.688V58.808C117.438 60.008 117.486 60.968 117.582 61.688C117.726 62.408 117.894 62.984 118.086 63.416C118.278 63.8 118.47 64.064 118.662 64.208C118.854 64.304 118.998 64.352 119.094 64.352V65H110.742V64.352C110.838 64.352 110.982 64.304 111.174 64.208C111.366 64.064 111.534 63.8 111.678 63.416C111.87 62.984 112.038 62.408 112.182 61.688C112.326 60.968 112.398 60.008 112.398 58.808V43.688C112.398 42.824 112.35 41.792 112.254 40.592C112.158 39.344 111.942 38.144 111.606 36.992C111.318 35.792 110.862 34.712 110.238 33.752C109.662 32.792 108.87 32.144 107.862 31.808C106.854 31.472 105.87 31.496 104.91 31.88C103.95 32.216 103.062 32.744 102.246 33.464C101.478 34.184 100.782 35 100.158 35.912C99.5336 36.824 99.0296 37.688 98.6456 38.504C97.5896 40.808 96.7496 43.64 96.1256 47C95.5016 50.312 95.1896 54.248 95.1896 58.808C95.1896 60.008 95.2376 60.968 95.3336 61.688C95.4776 62.408 95.6456 62.984 95.8376 63.416C96.0296 63.8 96.2216 64.064 96.4136 64.208C96.6056 64.304 96.7496 64.352 96.8456 64.352V65H88.5656V64.352C88.6616 64.352 88.8056 64.304 88.9976 64.208C89.1896 64.064 89.3576 63.8 89.5016 63.416C89.6936 62.984 89.8616 62.408 90.0056 61.688C90.1496 60.968 90.2216 60.008 90.2216 58.808V36.488C90.2216 35.336 90.1496 34.4 90.0056 33.68C89.8616 32.912 89.6936 32.336 89.5016 31.952C89.3576 31.568 89.1896 31.304 88.9976 31.16C88.8056 31.016 88.6616 30.944 88.5656 30.944V30.296ZM123.315 52.256C122.691 49.904 122.547 47.576 122.883 45.272C123.219 42.968 123.939 40.856 125.043 38.936C126.195 36.968 127.683 35.264 129.507 33.824C131.331 32.384 133.419 31.352 135.771 30.728C138.267 30.056 140.667 29.912 142.971 30.296C145.275 30.632 147.363 31.328 149.235 32.384C151.107 33.44 152.715 34.784 154.059 36.416C155.403 38.048 156.363 39.824 156.939 41.744C155.211 41.744 153.339 41.816 151.323 41.96C149.355 42.104 147.555 42.368 145.923 42.752C147.267 42.704 148.491 42.944 149.595 43.472C150.747 43.952 151.731 44.624 152.547 45.488C153.363 46.352 154.011 47.36 154.491 48.512C154.971 49.664 155.259 50.864 155.355 52.112C155.547 54.704 154.995 56.96 153.699 58.88C152.451 60.752 150.771 62.24 148.659 63.344C146.595 64.4 144.267 65 141.675 65.144C139.083 65.336 136.563 65 134.115 64.136C131.715 63.272 129.531 61.88 127.563 59.96C125.595 57.992 124.179 55.424 123.315 52.256ZM127.563 47.072C127.707 48.464 127.923 49.76 128.211 50.96C129.123 54.416 130.515 57.128 132.387 59.096C134.259 61.064 136.275 62.408 138.435 63.128C140.643 63.848 142.851 64.016 145.059 63.632C147.267 63.2 149.187 62.36 150.819 61.112C152.451 59.864 153.627 58.28 154.347 56.36C155.115 54.392 155.139 52.208 154.419 49.808C154.035 48.512 153.411 47.336 152.547 46.28C151.683 45.224 150.627 44.456 149.379 43.976C148.131 43.448 146.715 43.256 145.131 43.4C143.547 43.496 141.867 44.072 140.091 45.128C138.363 46.136 136.659 46.856 134.979 47.288C133.347 47.672 131.835 47.816 130.443 47.72C129.915 47.672 129.411 47.624 128.931 47.576C128.451 47.48 127.995 47.312 127.563 47.072ZM151.395 41.384C150.723 39.848 149.859 38.384 148.803 36.992C147.747 35.552 146.547 34.328 145.203 33.32C143.907 32.312 142.467 31.592 140.883 31.16C139.299 30.728 137.643 30.752 135.915 31.232C134.283 31.664 132.915 32.408 131.811 33.464C130.707 34.52 129.819 35.744 129.147 37.136C128.523 38.528 128.067 40.04 127.779 41.672C127.539 43.304 127.467 44.912 127.563 46.496C128.379 46.88 129.339 47.12 130.443 47.216C131.787 47.312 133.251 47.168 134.835 46.784C136.467 46.352 138.123 45.656 139.803 44.696C141.819 43.544 143.835 42.728 145.851 42.248C147.867 41.768 149.715 41.48 151.395 41.384ZM159.511 32.888L166.279 30.296V58.808C166.279 60.008 166.327 60.968 166.423 61.688C166.567 62.408 166.735 62.984 166.927 63.416C167.119 63.8 167.311 64.064 167.503 64.208C167.695 64.304 167.839 64.352 167.935 64.352V65H159.583V64.352C159.727 64.352 159.895 64.304 160.087 64.208C160.279 64.064 160.447 63.8 160.591 63.416C160.783 62.984 160.951 62.408 161.095 61.688C161.239 60.968 161.311 60.008 161.311 58.808V36.56C161.119 35.264 160.855 34.424 160.519 34.04C160.183 33.656 159.919 33.464 159.727 33.464L159.511 32.888ZM163.255 24.464C162.295 24.464 161.479 24.152 160.807 23.528C160.183 22.856 159.871 22.04 159.871 21.08C159.871 20.12 160.183 19.328 160.807 18.704C161.479 18.032 162.295 17.696 163.255 17.696C164.215 17.696 165.007 18.032 165.631 18.704C166.303 19.328 166.639 20.12 166.639 21.08C166.639 22.04 166.303 22.856 165.631 23.528C165.007 24.152 164.215 24.464 163.255 24.464ZM196.446 43.256C196.446 42.248 196.158 41.168 195.582 40.016C195.054 38.816 194.31 37.664 193.35 36.56C192.39 35.408 191.286 34.4 190.038 33.536C188.838 32.624 187.566 31.976 186.222 31.592C184.926 31.16 183.606 31.064 182.262 31.304C180.966 31.496 179.79 32.144 178.734 33.248C177.726 34.256 177.246 35.456 177.294 36.848C177.342 38.192 177.918 39.416 179.022 40.52C179.838 41.336 181.038 42.152 182.622 42.968C184.254 43.784 186.39 44.528 189.03 45.2C190.998 45.728 192.654 46.352 193.998 47.072C195.342 47.792 196.446 48.56 197.31 49.376C198.702 50.768 199.518 52.328 199.758 54.056C199.998 55.784 199.638 57.512 198.678 59.24C198.198 60.056 197.622 60.824 196.95 61.544C196.326 62.216 195.63 62.768 194.862 63.2C194.094 63.728 193.23 64.184 192.27 64.568C191.358 64.904 190.398 65.168 189.39 65.36C188.382 65.6 187.374 65.744 186.366 65.792C185.358 65.888 184.398 65.912 183.486 65.864C181.758 65.72 179.934 65.36 178.014 64.784C176.142 64.16 174.174 63.224 172.11 61.976L171.534 61.616L173.262 53.624L173.838 53.768C173.742 54.2 173.838 54.752 174.126 55.424C174.414 56.096 174.774 56.792 175.206 57.512C175.638 58.232 176.094 58.904 176.574 59.528C177.054 60.104 177.462 60.536 177.798 60.824C178.758 61.784 179.814 62.552 180.966 63.128C182.118 63.656 183.318 64.04 184.566 64.28C185.766 64.52 186.942 64.616 188.094 64.568C189.294 64.52 190.422 64.352 191.478 64.064C192.054 63.92 192.582 63.752 193.062 63.56C193.542 63.32 194.046 63.056 194.574 62.768C195.054 62.432 195.486 62.072 195.87 61.688C196.206 61.304 196.494 60.896 196.734 60.464C197.022 60.032 197.214 59.576 197.31 59.096C197.406 58.328 197.358 57.632 197.166 57.008C196.83 56.096 196.254 55.328 195.438 54.704C194.67 54.032 193.758 53.48 192.702 53.048C191.646 52.568 190.494 52.16 189.246 51.824C188.046 51.488 186.846 51.128 185.646 50.744C183.342 50.072 181.302 49.112 179.526 47.864C177.798 46.616 176.526 45.2 175.71 43.616C174.942 41.984 174.702 40.256 174.99 38.432C175.326 36.608 176.43 34.76 178.302 32.888C179.55 31.592 181.182 30.8 183.198 30.512C185.262 30.176 187.326 30.176 189.39 30.512C191.502 30.8 193.398 31.376 195.078 32.24C196.806 33.056 197.982 33.992 198.606 35.048L196.806 43.256H196.446Z" fill="white"/>
<path d="M45.444 88.12C44.836 88.128 44.308 88.032 43.86 87.832C43.412 87.632 42.984 87.332 42.576 86.932C42.536 86.9 42.5 86.86 42.468 86.812C42.444 86.764 42.432 86.708 42.432 86.644C42.432 86.548 42.468 86.46 42.54 86.38C42.62 86.3 42.708 86.26 42.804 86.26C42.9 86.26 42.988 86.3 43.068 86.38C43.38 86.716 43.732 86.972 44.124 87.148C44.524 87.324 44.952 87.412 45.408 87.412C45.792 87.412 46.132 87.352 46.428 87.232C46.732 87.112 46.972 86.94 47.148 86.716C47.324 86.492 47.412 86.232 47.412 85.936C47.412 85.568 47.312 85.272 47.112 85.048C46.912 84.816 46.648 84.628 46.32 84.484C45.992 84.332 45.628 84.196 45.228 84.076C44.9 83.98 44.588 83.872 44.292 83.752C43.996 83.624 43.732 83.472 43.5 83.296C43.268 83.112 43.088 82.888 42.96 82.624C42.832 82.36 42.768 82.04 42.768 81.664C42.768 81.24 42.88 80.864 43.104 80.536C43.328 80.208 43.644 79.952 44.052 79.768C44.468 79.576 44.948 79.48 45.492 79.48C45.964 79.48 46.416 79.56 46.848 79.72C47.288 79.88 47.636 80.116 47.892 80.428C48.012 80.556 48.072 80.672 48.072 80.776C48.072 80.856 48.032 80.936 47.952 81.016C47.872 81.096 47.784 81.136 47.688 81.136C47.608 81.136 47.54 81.108 47.484 81.052C47.348 80.884 47.176 80.736 46.968 80.608C46.76 80.472 46.528 80.368 46.272 80.296C46.024 80.224 45.764 80.188 45.492 80.188C45.116 80.188 44.776 80.248 44.472 80.368C44.176 80.48 43.94 80.644 43.764 80.86C43.596 81.076 43.512 81.336 43.512 81.64C43.512 81.976 43.608 82.252 43.8 82.468C43.992 82.684 44.244 82.864 44.556 83.008C44.868 83.144 45.2 83.272 45.552 83.392C45.896 83.488 46.224 83.6 46.536 83.728C46.856 83.848 47.136 84 47.376 84.184C47.624 84.368 47.816 84.6 47.952 84.88C48.096 85.16 48.168 85.512 48.168 85.936C48.168 86.344 48.052 86.712 47.82 87.04C47.588 87.368 47.268 87.628 46.86 87.82C46.46 88.012 45.988 88.112 45.444 88.12ZM55.9983 80.224C56.0943 80.288 56.1503 80.372 56.1663 80.476C56.1823 80.572 56.1583 80.668 56.0943 80.764C56.0383 80.836 55.9663 80.876 55.8783 80.884C55.7903 80.892 55.7063 80.876 55.6263 80.836C55.3223 80.636 54.9943 80.48 54.6423 80.368C54.2983 80.256 53.9263 80.2 53.5263 80.2C53.0383 80.2 52.5823 80.288 52.1583 80.464C51.7423 80.632 51.3783 80.88 51.0663 81.208C50.7543 81.528 50.5103 81.908 50.3343 82.348C50.1663 82.788 50.0823 83.272 50.0823 83.8C50.0823 84.344 50.1703 84.84 50.3463 85.288C50.5223 85.728 50.7663 86.108 51.0783 86.428C51.3983 86.748 51.7663 86.992 52.1823 87.16C52.5983 87.328 53.0463 87.412 53.5263 87.412C53.9183 87.412 54.2863 87.356 54.6303 87.244C54.9823 87.132 55.3103 86.98 55.6143 86.788C55.6943 86.74 55.7783 86.724 55.8663 86.74C55.9623 86.748 56.0383 86.792 56.0943 86.872C56.1663 86.96 56.1903 87.056 56.1663 87.16C56.1503 87.256 56.0983 87.332 56.0103 87.388C55.8103 87.516 55.5743 87.636 55.3023 87.748C55.0303 87.86 54.7423 87.948 54.4383 88.012C54.1343 88.084 53.8303 88.12 53.5263 88.12C52.9503 88.12 52.4103 88.016 51.9063 87.808C51.4023 87.6 50.9543 87.308 50.5623 86.932C50.1703 86.548 49.8623 86.092 49.6383 85.564C49.4223 85.036 49.3143 84.448 49.3143 83.8C49.3143 83.176 49.4223 82.604 49.6383 82.084C49.8543 81.556 50.1543 81.1 50.5383 80.716C50.9223 80.332 51.3703 80.032 51.8823 79.816C52.3943 79.6 52.9423 79.492 53.5263 79.492C53.9823 79.492 54.4223 79.556 54.8463 79.684C55.2703 79.812 55.6543 79.992 55.9983 80.224ZM65.1941 83.8C65.1941 84.432 65.0941 85.012 64.8941 85.54C64.7021 86.06 64.4261 86.516 64.0661 86.908C63.7061 87.292 63.2781 87.592 62.7821 87.808C62.2941 88.016 61.7581 88.12 61.1741 88.12C60.5901 88.12 60.0501 88.016 59.5541 87.808C59.0661 87.592 58.6421 87.292 58.2821 86.908C57.9221 86.516 57.6421 86.06 57.4421 85.54C57.2501 85.012 57.1541 84.432 57.1541 83.8C57.1541 83.168 57.2501 82.592 57.4421 82.072C57.6421 81.544 57.9221 81.088 58.2821 80.704C58.6421 80.312 59.0661 80.012 59.5541 79.804C60.0501 79.588 60.5901 79.48 61.1741 79.48C61.7581 79.48 62.2941 79.588 62.7821 79.804C63.2781 80.012 63.7061 80.312 64.0661 80.704C64.4261 81.088 64.7021 81.544 64.8941 82.072C65.0941 82.592 65.1941 83.168 65.1941 83.8ZM64.4261 83.8C64.4261 83.088 64.2861 82.464 64.0061 81.928C63.7341 81.384 63.3541 80.96 62.8661 80.656C62.3781 80.352 61.8141 80.2 61.1741 80.2C60.5421 80.2 59.9781 80.352 59.4821 80.656C58.9941 80.96 58.6101 81.384 58.3301 81.928C58.0581 82.464 57.9221 83.088 57.9221 83.8C57.9221 84.512 58.0581 85.14 58.3301 85.684C58.6101 86.22 58.9941 86.64 59.4821 86.944C59.9781 87.248 60.5421 87.4 61.1741 87.4C61.8141 87.4 62.3781 87.248 62.8661 86.944C63.3541 86.64 63.7341 86.22 64.0061 85.684C64.2861 85.14 64.4261 84.512 64.4261 83.8ZM69.1553 88C69.0433 88 68.9513 87.964 68.8793 87.892C68.8153 87.82 68.7833 87.736 68.7833 87.64V79.996H69.5273V87.64C69.5273 87.736 69.4913 87.82 69.4193 87.892C69.3473 87.964 69.2593 88 69.1553 88ZM66.2993 80.284C66.2033 80.284 66.1193 80.252 66.0473 80.188C65.9753 80.124 65.9393 80.04 65.9393 79.936C65.9393 79.84 65.9753 79.76 66.0473 79.696C66.1193 79.632 66.2033 79.6 66.2993 79.6H72.0113C72.1073 79.6 72.1913 79.632 72.2633 79.696C72.3353 79.76 72.3713 79.844 72.3713 79.948C72.3713 80.052 72.3353 80.136 72.2633 80.2C72.1913 80.256 72.1073 80.284 72.0113 80.284H66.2993ZM76.7607 88C76.6487 88 76.5567 87.964 76.4847 87.892C76.4207 87.82 76.3887 87.736 76.3887 87.64V79.996H77.1327V87.64C77.1327 87.736 77.0967 87.82 77.0247 87.892C76.9527 87.964 76.8647 88 76.7607 88ZM73.9047 80.284C73.8087 80.284 73.7247 80.252 73.6527 80.188C73.5807 80.124 73.5447 80.04 73.5447 79.936C73.5447 79.84 73.5807 79.76 73.6527 79.696C73.7247 79.632 73.8087 79.6 73.9047 79.6H79.6167C79.7127 79.6 79.7967 79.632 79.8687 79.696C79.9407 79.76 79.9767 79.844 79.9767 79.948C79.9767 80.052 79.9407 80.136 79.8687 80.2C79.7967 80.256 79.7127 80.284 79.6167 80.284H73.9047ZM82.2629 87.628C82.2549 87.732 82.2109 87.82 82.1309 87.892C82.0589 87.964 81.9749 88 81.8789 88C81.7669 88 81.6749 87.964 81.6029 87.892C81.5389 87.82 81.5069 87.732 81.5069 87.628V79.972C81.5069 79.868 81.5429 79.78 81.6149 79.708C81.6869 79.636 81.7789 79.6 81.8909 79.6C81.9869 79.6 82.0709 79.636 82.1429 79.708C82.2229 79.78 82.2629 79.868 82.2629 79.972V87.628ZM86.8229 88.12C86.2149 88.128 85.6869 88.032 85.2389 87.832C84.7909 87.632 84.3629 87.332 83.9549 86.932C83.9149 86.9 83.8789 86.86 83.8469 86.812C83.8229 86.764 83.8109 86.708 83.8109 86.644C83.8109 86.548 83.8469 86.46 83.9189 86.38C83.9989 86.3 84.0869 86.26 84.1829 86.26C84.2789 86.26 84.3669 86.3 84.4469 86.38C84.7589 86.716 85.1109 86.972 85.5029 87.148C85.9029 87.324 86.3309 87.412 86.7869 87.412C87.1709 87.412 87.5109 87.352 87.8069 87.232C88.1109 87.112 88.3509 86.94 88.5269 86.716C88.7029 86.492 88.7909 86.232 88.7909 85.936C88.7909 85.568 88.6909 85.272 88.4909 85.048C88.2909 84.816 88.0269 84.628 87.6989 84.484C87.3709 84.332 87.0069 84.196 86.6069 84.076C86.2789 83.98 85.9669 83.872 85.6709 83.752C85.3749 83.624 85.1109 83.472 84.8789 83.296C84.6469 83.112 84.4669 82.888 84.3389 82.624C84.2109 82.36 84.1469 82.04 84.1469 81.664C84.1469 81.24 84.2589 80.864 84.4829 80.536C84.7069 80.208 85.0229 79.952 85.4309 79.768C85.8469 79.576 86.3269 79.48 86.8709 79.48C87.3429 79.48 87.7949 79.56 88.2269 79.72C88.6669 79.88 89.0149 80.116 89.2709 80.428C89.3909 80.556 89.4509 80.672 89.4509 80.776C89.4509 80.856 89.4109 80.936 89.3309 81.016C89.2509 81.096 89.1629 81.136 89.0669 81.136C88.9869 81.136 88.9189 81.108 88.8629 81.052C88.7269 80.884 88.5549 80.736 88.3469 80.608C88.1389 80.472 87.9069 80.368 87.6509 80.296C87.4029 80.224 87.1429 80.188 86.8709 80.188C86.4949 80.188 86.1549 80.248 85.8509 80.368C85.5549 80.48 85.3189 80.644 85.1429 80.86C84.9749 81.076 84.8909 81.336 84.8909 81.64C84.8909 81.976 84.9869 82.252 85.1789 82.468C85.3709 82.684 85.6229 82.864 85.9349 83.008C86.2469 83.144 86.5789 83.272 86.9309 83.392C87.2749 83.488 87.6029 83.6 87.9149 83.728C88.2349 83.848 88.5149 84 88.7549 84.184C89.0029 84.368 89.1949 84.6 89.3309 84.88C89.4749 85.16 89.5469 85.512 89.5469 85.936C89.5469 86.344 89.4309 86.712 89.1989 87.04C88.9669 87.368 88.6469 87.628 88.2389 87.82C87.8389 88.012 87.3669 88.112 86.8229 88.12ZM91.6292 79.6C91.7252 79.6 91.8092 79.636 91.8812 79.708C91.9612 79.78 92.0012 79.868 92.0012 79.972V87.628C91.9932 87.732 91.9492 87.82 91.8692 87.892C91.7972 87.964 91.7132 88 91.6172 88C91.5052 88 91.4132 87.964 91.3412 87.892C91.2772 87.82 91.2452 87.732 91.2452 87.628V79.972C91.2452 79.868 91.2812 79.78 91.3532 79.708C91.4252 79.636 91.5172 79.6 91.6292 79.6ZM97.2572 79.6C97.3692 79.6 97.4572 79.636 97.5212 79.708C97.5932 79.78 97.6292 79.868 97.6292 79.972V87.628C97.6212 87.732 97.5812 87.82 97.5092 87.892C97.4452 87.964 97.3572 88 97.2452 88C97.1412 88 97.0532 87.964 96.9812 87.892C96.9092 87.82 96.8732 87.732 96.8732 87.628V79.972C96.8732 79.868 96.9092 79.78 96.9812 79.708C97.0612 79.636 97.1532 79.6 97.2572 79.6ZM91.5692 83.356H97.2692L97.2572 84.052H91.5212L91.5692 83.356ZM103.535 88C103.423 88 103.331 87.964 103.259 87.892C103.195 87.82 103.163 87.736 103.163 87.64V79.96C103.163 79.864 103.199 79.78 103.271 79.708C103.343 79.636 103.427 79.6 103.523 79.6H107.891C107.995 79.6 108.079 79.636 108.143 79.708C108.215 79.772 108.251 79.856 108.251 79.96C108.251 80.056 108.215 80.14 108.143 80.212C108.079 80.276 107.995 80.308 107.891 80.308H103.847L103.895 80.236V83.428L103.835 83.32H107.351C107.455 83.32 107.539 83.356 107.603 83.428C107.675 83.492 107.711 83.572 107.711 83.668C107.711 83.772 107.675 83.856 107.603 83.92C107.539 83.984 107.455 84.016 107.351 84.016H103.811L103.895 83.92V87.64C103.895 87.736 103.859 87.82 103.787 87.892C103.723 87.964 103.639 88 103.535 88ZM115.9 79.6C116.012 79.6 116.1 79.636 116.164 79.708C116.228 79.772 116.26 79.856 116.26 79.96V84.928C116.26 85.52 116.12 86.056 115.84 86.536C115.56 87.016 115.184 87.4 114.712 87.688C114.24 87.968 113.708 88.108 113.116 88.108C112.524 88.108 111.988 87.968 111.508 87.688C111.036 87.4 110.66 87.016 110.38 86.536C110.1 86.056 109.96 85.52 109.96 84.928V79.96C109.96 79.856 109.992 79.772 110.056 79.708C110.128 79.636 110.224 79.6 110.344 79.6C110.44 79.6 110.524 79.636 110.596 79.708C110.668 79.772 110.704 79.856 110.704 79.96V84.928C110.704 85.392 110.812 85.808 111.028 86.176C111.252 86.544 111.548 86.84 111.916 87.064C112.284 87.28 112.684 87.388 113.116 87.388C113.564 87.388 113.972 87.28 114.34 87.064C114.708 86.84 115 86.544 115.216 86.176C115.44 85.808 115.552 85.392 115.552 84.928V79.96C115.552 79.856 115.584 79.772 115.648 79.708C115.712 79.636 115.796 79.6 115.9 79.6ZM118.923 88C118.803 88 118.703 87.964 118.623 87.892C118.551 87.82 118.515 87.736 118.515 87.64V79.96C118.515 79.864 118.551 79.78 118.623 79.708C118.695 79.636 118.779 79.6 118.875 79.6H122.115C122.571 79.6 122.979 79.7 123.339 79.9C123.699 80.092 123.979 80.36 124.179 80.704C124.387 81.048 124.491 81.436 124.491 81.868C124.491 82.22 124.427 82.544 124.299 82.84C124.171 83.136 123.991 83.388 123.759 83.596C123.527 83.796 123.267 83.944 122.979 84.04L122.559 83.908C122.855 83.932 123.131 84.028 123.387 84.196C123.643 84.356 123.847 84.58 123.999 84.868C124.159 85.148 124.243 85.488 124.251 85.888C124.259 86.232 124.275 86.5 124.299 86.692C124.331 86.884 124.375 87.028 124.431 87.124C124.487 87.22 124.559 87.296 124.647 87.352C124.727 87.4 124.779 87.468 124.803 87.556C124.835 87.644 124.827 87.728 124.779 87.808C124.747 87.872 124.699 87.92 124.635 87.952C124.579 87.976 124.519 87.988 124.455 87.988C124.391 87.988 124.327 87.972 124.263 87.94C124.151 87.876 124.035 87.776 123.915 87.64C123.803 87.504 123.707 87.304 123.627 87.04C123.555 86.776 123.519 86.408 123.519 85.936C123.519 85.624 123.467 85.368 123.363 85.168C123.267 84.968 123.139 84.816 122.979 84.712C122.827 84.6 122.655 84.524 122.463 84.484C122.279 84.436 122.103 84.412 121.935 84.412H119.139L119.271 84.244V87.64C119.271 87.736 119.239 87.82 119.175 87.892C119.111 87.964 119.027 88 118.923 88ZM119.139 83.752H122.151C122.423 83.728 122.679 83.64 122.919 83.488C123.159 83.328 123.351 83.112 123.495 82.84C123.647 82.568 123.723 82.252 123.723 81.892C123.723 81.436 123.567 81.06 123.255 80.764C122.951 80.46 122.551 80.308 122.055 80.308H119.187L119.271 80.14V83.92L119.139 83.752ZM132.698 79.6C132.802 79.6 132.882 79.632 132.938 79.696C133.002 79.76 133.034 79.84 133.034 79.936V87.616C133.034 87.736 132.994 87.832 132.914 87.904C132.842 87.968 132.758 88 132.662 88C132.614 88 132.562 87.992 132.506 87.976C132.45 87.952 132.406 87.92 132.374 87.88L127.022 80.668L127.226 80.56V87.676C127.226 87.764 127.194 87.84 127.13 87.904C127.066 87.968 126.986 88 126.89 88C126.786 88 126.702 87.968 126.638 87.904C126.582 87.84 126.554 87.764 126.554 87.676V79.96C126.554 79.84 126.59 79.752 126.662 79.696C126.734 79.632 126.814 79.6 126.902 79.6C126.95 79.6 127.002 79.612 127.058 79.636C127.114 79.652 127.158 79.684 127.19 79.732L132.482 86.86L132.362 87.076V79.936C132.362 79.84 132.394 79.76 132.458 79.696C132.53 79.632 132.61 79.6 132.698 79.6ZM136.04 87.628C136.032 87.732 135.988 87.82 135.908 87.892C135.836 87.964 135.752 88 135.656 88C135.544 88 135.452 87.964 135.38 87.892C135.316 87.82 135.284 87.732 135.284 87.628V79.972C135.284 79.868 135.32 79.78 135.392 79.708C135.464 79.636 135.556 79.6 135.668 79.6C135.764 79.6 135.848 79.636 135.92 79.708C136 79.78 136.04 79.868 136.04 79.972V87.628ZM140.78 88C140.668 88 140.576 87.964 140.504 87.892C140.44 87.82 140.408 87.736 140.408 87.64V79.996H141.152V87.64C141.152 87.736 141.116 87.82 141.044 87.892C140.972 87.964 140.884 88 140.78 88ZM137.924 80.284C137.828 80.284 137.744 80.252 137.672 80.188C137.6 80.124 137.564 80.04 137.564 79.936C137.564 79.84 137.6 79.76 137.672 79.696C137.744 79.632 137.828 79.6 137.924 79.6H143.636C143.732 79.6 143.816 79.632 143.888 79.696C143.96 79.76 143.996 79.844 143.996 79.948C143.996 80.052 143.96 80.136 143.888 80.2C143.816 80.256 143.732 80.284 143.636 80.284H137.924ZM151.466 79.6C151.578 79.6 151.666 79.636 151.73 79.708C151.794 79.772 151.826 79.856 151.826 79.96V84.928C151.826 85.52 151.686 86.056 151.406 86.536C151.126 87.016 150.75 87.4 150.278 87.688C149.806 87.968 149.274 88.108 148.682 88.108C148.09 88.108 147.554 87.968 147.074 87.688C146.602 87.4 146.226 87.016 145.946 86.536C145.666 86.056 145.526 85.52 145.526 84.928V79.96C145.526 79.856 145.558 79.772 145.622 79.708C145.694 79.636 145.79 79.6 145.91 79.6C146.006 79.6 146.09 79.636 146.162 79.708C146.234 79.772 146.27 79.856 146.27 79.96V84.928C146.27 85.392 146.378 85.808 146.594 86.176C146.818 86.544 147.114 86.84 147.482 87.064C147.85 87.28 148.25 87.388 148.682 87.388C149.13 87.388 149.538 87.28 149.906 87.064C150.274 86.84 150.566 86.544 150.782 86.176C151.006 85.808 151.118 85.392 151.118 84.928V79.96C151.118 79.856 151.15 79.772 151.214 79.708C151.278 79.636 151.362 79.6 151.466 79.6ZM154.489 88C154.369 88 154.269 87.964 154.189 87.892C154.117 87.82 154.081 87.736 154.081 87.64V79.96C154.081 79.864 154.117 79.78 154.189 79.708C154.261 79.636 154.345 79.6 154.441 79.6H157.681C158.137 79.6 158.545 79.7 158.905 79.9C159.265 80.092 159.545 80.36 159.745 80.704C159.953 81.048 160.057 81.436 160.057 81.868C160.057 82.22 159.993 82.544 159.865 82.84C159.737 83.136 159.557 83.388 159.325 83.596C159.093 83.796 158.833 83.944 158.545 84.04L158.125 83.908C158.421 83.932 158.697 84.028 158.953 84.196C159.209 84.356 159.413 84.58 159.565 84.868C159.725 85.148 159.809 85.488 159.817 85.888C159.825 86.232 159.841 86.5 159.865 86.692C159.897 86.884 159.941 87.028 159.997 87.124C160.053 87.22 160.125 87.296 160.213 87.352C160.293 87.4 160.345 87.468 160.369 87.556C160.401 87.644 160.393 87.728 160.345 87.808C160.313 87.872 160.265 87.92 160.201 87.952C160.145 87.976 160.085 87.988 160.021 87.988C159.957 87.988 159.893 87.972 159.829 87.94C159.717 87.876 159.601 87.776 159.481 87.64C159.369 87.504 159.273 87.304 159.193 87.04C159.121 86.776 159.085 86.408 159.085 85.936C159.085 85.624 159.033 85.368 158.929 85.168C158.833 84.968 158.705 84.816 158.545 84.712C158.393 84.6 158.221 84.524 158.029 84.484C157.845 84.436 157.669 84.412 157.501 84.412H154.705L154.837 84.244V87.64C154.837 87.736 154.805 87.82 154.741 87.892C154.677 87.964 154.593 88 154.489 88ZM154.705 83.752H157.717C157.989 83.728 158.245 83.64 158.485 83.488C158.725 83.328 158.917 83.112 159.061 82.84C159.213 82.568 159.289 82.252 159.289 81.892C159.289 81.436 159.133 81.06 158.821 80.764C158.517 80.46 158.117 80.308 157.621 80.308H154.753L154.837 80.14V83.92L154.705 83.752ZM162.48 79.6H166.884C166.98 79.6 167.064 79.636 167.136 79.708C167.208 79.772 167.244 79.856 167.244 79.96C167.244 80.064 167.208 80.148 167.136 80.212C167.064 80.276 166.98 80.308 166.884 80.308H162.756L162.876 80.104V83.476L162.744 83.32H166.344C166.44 83.32 166.524 83.356 166.596 83.428C166.668 83.5 166.704 83.584 166.704 83.68C166.704 83.784 166.668 83.868 166.596 83.932C166.524 83.996 166.44 84.028 166.344 84.028H162.768L162.876 83.908V87.364L162.816 87.292H166.884C166.98 87.292 167.064 87.328 167.136 87.4C167.208 87.472 167.244 87.556 167.244 87.652C167.244 87.756 167.208 87.84 167.136 87.904C167.064 87.968 166.98 88 166.884 88H162.48C162.384 88 162.3 87.964 162.228 87.892C162.156 87.82 162.12 87.736 162.12 87.64V79.96C162.12 79.864 162.156 79.78 162.228 79.708C162.3 79.636 162.384 79.6 162.48 79.6ZM171.257 88.12C170.649 88.128 170.121 88.032 169.673 87.832C169.225 87.632 168.797 87.332 168.389 86.932C168.349 86.9 168.313 86.86 168.281 86.812C168.257 86.764 168.245 86.708 168.245 86.644C168.245 86.548 168.281 86.46 168.353 86.38C168.433 86.3 168.521 86.26 168.617 86.26C168.713 86.26 168.801 86.3 168.881 86.38C169.193 86.716 169.545 86.972 169.937 87.148C170.337 87.324 170.765 87.412 171.221 87.412C171.605 87.412 171.945 87.352 172.241 87.232C172.545 87.112 172.785 86.94 172.961 86.716C173.137 86.492 173.225 86.232 173.225 85.936C173.225 85.568 173.125 85.272 172.925 85.048C172.725 84.816 172.461 84.628 172.133 84.484C171.805 84.332 171.441 84.196 171.041 84.076C170.713 83.98 170.401 83.872 170.105 83.752C169.809 83.624 169.545 83.472 169.312 83.296C169.081 83.112 168.901 82.888 168.773 82.624C168.645 82.36 168.581 82.04 168.581 81.664C168.581 81.24 168.693 80.864 168.917 80.536C169.141 80.208 169.457 79.952 169.865 79.768C170.281 79.576 170.761 79.48 171.305 79.48C171.777 79.48 172.229 79.56 172.661 79.72C173.101 79.88 173.449 80.116 173.705 80.428C173.825 80.556 173.885 80.672 173.885 80.776C173.885 80.856 173.845 80.936 173.765 81.016C173.685 81.096 173.597 81.136 173.501 81.136C173.421 81.136 173.353 81.108 173.297 81.052C173.161 80.884 172.989 80.736 172.781 80.608C172.573 80.472 172.341 80.368 172.085 80.296C171.837 80.224 171.577 80.188 171.305 80.188C170.929 80.188 170.589 80.248 170.285 80.368C169.989 80.48 169.753 80.644 169.576 80.86C169.409 81.076 169.325 81.336 169.325 81.64C169.325 81.976 169.421 82.252 169.613 82.468C169.805 82.684 170.057 82.864 170.369 83.008C170.681 83.144 171.013 83.272 171.365 83.392C171.709 83.488 172.037 83.6 172.349 83.728C172.669 83.848 172.949 84 173.189 84.184C173.437 84.368 173.629 84.6 173.765 84.88C173.909 85.16 173.98 85.512 173.98 85.936C173.98 86.344 173.865 86.712 173.633 87.04C173.401 87.368 173.081 87.628 172.673 87.82C172.273 88.012 171.801 88.112 171.257 88.12Z" fill="white"/>
</svg>
